<svg height="104" viewBox="0 0 417 104" width="417" xmlns="http://www.w3.org/2000/svg" xmlns:xlink="http://www.w3.org/1999/xlink"><mask id="a" fill="#fff"><path d="m0 .10839437h103.758063v103.52540863h-103.758063z" fill="#fff" fill-rule="evenodd"/></mask><mask id="b" fill="#fff"><path d="m0 .44602062h289.816114v62.89418558h-289.816114z" fill="#fff" fill-rule="evenodd"/></mask><g fill="none" fill-rule="evenodd"><g fill="#77b446"><path d="m44.1688365 103.633803c-.1171369 0-.2357333-.009155-.3554246-.027831-12.0895438-1.894338-23.1748491-8.0830706-31.2145965-17.4258593-8.12440698-9.441662-12.59896136-21.5199437-12.59896136-34.0101972 0-28.7065634 23.27301056-52.06152113 51.87957896-52.06152113 28.6058386 0 51.878849 23.35495773 51.878849 52.06152113 0 23.7885352-16.015635 44.5266479-38.9470876 50.4308455-1.223186.316028-2.4679018-.424423-2.7817263-1.65155-.3138246-1.2271265.4229333-2.4769575 1.6457544-2.7915209 20.9087438-5.3838309 35.5118035-24.2946197 35.5118035-45.9877746 0-26.1772394-21.2222035-47.47416902-47.307593-47.47416902-26.0857544 0-47.30832282 21.29692962-47.30832282 47.47416902 0 11.389831 4.07971929 22.4035775 11.48780352 31.0117746 7.3321824 8.5210423 17.4395228 14.1648733 28.4595088 15.8918592 1.2472701.1955493 2.100435 1.3684787 1.9059368 2.6201407-.1762526 1.131549-1.1487439 1.939747-2.2555228 1.940113" mask="url(#a)" transform="translate(0 .257803)"/><path d="m59.8675453 103.64413c-1.9997193 0-4.2329825-.40831-6.1721264-1.752254-2.9889964-2.0704788-4.5044771-5.7243943-4.5044771-10.8603098v-59.6070141c0-1.266676 1.023214-2.2934929 2.2854456-2.2934929 1.2622315 0 2.2858105 1.0268169 2.2858105 2.2934929v59.6070141c0 3.5385634.8513403 5.9221408 2.5299368 7.0851831 2.8496 1.9738027 7.5504.2709859 7.5971088.2541408 1.1790316-.4500563 2.500014.1464789 2.9477614 1.3311268.4473825 1.1846481-.1466947 2.5088171-1.326821 2.9577751-.1693193.06445-2.6434246.984338-5.6426386.984338"/><path d="m51.4756211 73.6154479c-.5466386 0-1.0947369-.1955493-1.5319018-.5921409-.9363649-.8495774-1.0093474-2.2997183-.1631158-3.2393802l27.5275228-30.5624507c.8462316-.9400282 2.2916491-1.0132676 3.228379-.1636902.9363649.8492113 1.0089824 2.2997183.1627508 3.2393803l-27.5275228 30.5624507c-.4510315.5009577-1.0724772.755831-1.6961122.755831"/><path d="m50.8168814 87.0469014c-.6535579 0-1.3023719-.2801408-1.7544982-.8224789l-21.0466807-25.2558873c-.8097404-.9718873-.6812913-2.418.2871859-3.2309577.9688421-.8125916 2.4102456-.683324 3.2192562.2881971l21.0466807 25.2562536c.8097403.9715211.6812912 2.418-.2868211 3.2305915-.4280421.3588733-.9480421.5342817-1.4651228.5342817"/><path d="m29.7891761 71.1788085c-.3499508 0-.7013614-.0157465-1.0545965-.0472395-3.0962807-.2772113-5.8999017-1.7478591-7.8934175-4.1413239-.8093754-.9715212-.6805614-2.4183662.2879158-3.2305916.9684772-.8125915 2.4098807-.6833239 3.2192561.2885634 1.2104141 1.4530704 2.9123649 2.3458592 4.7927579 2.5143099 1.8796632.1669859 3.7137123-.4086761 5.1624141-1.6237183 1.4487017-1.2154085 2.3387228-2.9240846 2.5065824-4.8114648.1674948-1.8873803-.407607-3.7275212-1.6194807-5.181324-.8097403-.9715211-.6816561-2.4183662.2864562-3.2309577.9684772-.8125916 2.4095157-.6840564 3.219621.2874648 1.9953404 2.3938309 2.9426526 5.4237464 2.666414 8.5320281-.2762385 3.1079155-1.7420912 5.9217747-4.1275228 7.9234085-2.1135719 1.7734929-4.7248842 2.7208451-7.4464 2.7208451"/><path d="m29.7702737 61.7909042c-.6535579 0-1.3023719-.2797746-1.7544983-.8221127l-3.8771929-4.6514366c-.8097404-.9718873-.6812913-2.4183662.286821-3.2309577.9684772-.8129578 2.4095158-.6836902 3.2196211.287831l3.8771929 4.6514366c.8101053.9715211.6812913 2.418-.286821 3.2309577-.4276772.3588733-.9480421.5342817-1.4651228.5342817"/><path d="m36.944887 55.7679493c-.6539228 0-1.3027368-.2797747-1.7548631-.8224789l-3.7998316-4.5606197c-.8093755-.9718873-.6809263-2.4183662.2875509-3.2309577.9681122-.8125916 2.4098807-.683324 3.219621.2885633l3.7998316 4.5606198c.8097403.9718873.6809263 2.4183662-.2875509 3.2309577-.4276772.358507-.9476772.5339155-1.4647579.5339155"/><path d="m22.5960618 67.8131268c-.6539229 0-1.302372-.2797747-1.7548632-.8224789l-3.7658947-4.5199718c-.8097404-.9718874-.6809264-2.418.2875508-3.2309578.9681123-.8122253 2.4095158-.6833239 3.2192562.2885634l3.7662596 4.5199718c.8097404.9718873.6809263 2.418-.2875509 3.2309578-.4276771.358507-.9476771.5339155-1.4647578.5339155"/><path d="m51.4756211 21.2284873c-4.1231439 0-7.4777825 4.4071831-7.4777825 9.8243381 0 5.4167887 3.3546386 9.8239718 7.4777825 9.8239718 4.1235087 0 7.4781473-4.4071831 7.4781473-9.8239718 0-5.417155-3.3546386-9.8243381-7.4781473-9.8243381m0 24.2352958c-6.6439579 0-12.0486737-6.4648451-12.0486737-14.4109577 0-7.9468451 5.4047158-14.411324 12.0486737-14.411324 6.6439578 0 12.0497684 6.4644789 12.0497684 14.411324 0 7.9461126-5.4058106 14.4109577-12.0497684 14.4109577"/><path d="m73.0450021 70.0981239c-.2711298 0-.5426246-.0498028-.8024421-.1497746-.4692772-.1812676-1.5654737-.6049578-10.0905544-9.5478592-.8130245-.8532394-.7831017-2.2067042.0671439-3.0229577.8502456-.8166197 2.1989614-.7862254 3.0127158.0670141 2.4310456 2.5505634 5.2463438 5.4014084 7.0490105 7.1152112 1.5001544-4.8568732 4.1880982-16.8285915 5.3156772-24.6688732.1682245-1.1685352 1.2501895-1.9770986 2.4131649-1.8108451 1.1648.1688169 1.9727158 1.2531268 1.8044912 2.421662-.6243649 4.3412676-1.9285614 11.0375493-3.3221614 17.0607606-2.5963509 11.2195493-3.4586386 11.7270986-4.2924631 12.2178028-.3583439.2109296-.7560983.3178591-1.1545825.3178591"/></g><g transform="translate(127 22)"><path d="m.08423182 2.41260206v39.66614434h19.20590908v-3.8287835h-15.24674999v-35.83736084z" fill="#808184"/><g transform="translate(0 .213905)"><g fill="#808184"><path d="m24.3810909 41.8645773h3.7713182v-29.3383917h-3.7713182zm1.8724773-41.41855668c.8581363 0 1.5917045.30548454 2.1987273.91645361.6083409.61096907.9121818 1.34795876.9121818 2.21096907 0 .84519588-.3038409 1.57360825-.9121818 2.18457732-.6070228.61096907-1.340591.91645361-2.1987273.91645361-.841 0-1.5646818-.30548454-2.1730227-.91645361-.6070228-.61096907-.9115228-1.33938144-.9115228-2.18457732 0-.86301031.3045-1.6.9115228-2.21096907.6083409-.61096907 1.3320227-.91645361 2.1730227-.91645361z" mask="url(#b)"/><path d="m48.0586023 1.20102268v3.69418557c-1.3827728-.59381444-2.5678182-.89006186-3.5557955-.89006186-.7362045 0-1.3465227.14845361-1.8316136.44536083-.4844318.29624742-.79025.63802062-.9154773 1.02465979-.1258864.38597938-.1885 1.41525773-.1885 3.08717526l-.0032954 3.96404123h6.1176818v3.2626804h-6.1203182l-.0210909 26.0757114h-3.7713182v-26.0757114h-3.8523864v-3.2626804h3.8523864v-4.58424742c0-2.10342268.1931136-3.60445361.5793409-4.50309278.3862273-.89929897 1.0413636-1.62243299 1.9660682-2.17072165.9247045-.54828866 2.0431818-.82276289 3.3534545-.82276289 1.2212955 0 2.6851364.25138145 4.3908637.75546392" mask="url(#b)"/><path d="m56.59785 1.63206598h3.7713182v10.89451542h5.9792727v3.2626805h-5.9792727v26.0757113h-3.7713182v-26.0757113h-5.1448636v-3.2626805h5.1448636z" mask="url(#b)"/><path d="m96.6797386 24.2294103c-.5035454-2.0136907-1.2364545-3.622268-2.1980681-4.8263917-.9622728-1.2047835-2.2343182-2.1753402-3.8167955-2.9123299-1.5824773-.7376495-3.2453636-1.1058145-4.9886591-1.1058145-2.8775909 0-5.3498409.9256907-7.41675 2.777732-1.5106364 1.3479587-2.6528409 3.3702268-3.4259545 6.0668041zm0 7.9010309 3.1781364 1.6719176c-1.0420227 2.0493196-2.2468409 3.7027628-3.6124773 4.9609897-1.3656363 1.2588866-2.9026363 2.2162474-4.611 2.8720824-1.7077045.6564949-3.6395.9844124-5.7960454.9844124-4.7817046 0-8.5200682-1.5683299-11.21575-4.7056495-2.697-3.1373196-4.0448409-6.6830515-4.0448409-10.6378557 0-3.7205773 1.1408863-7.0380206 3.4239772-9.9503505 2.8940682-3.7027629 6.7668864-5.5548041 11.6204319-5.5548041 4.9965681 0 8.9867045 1.8962474 11.970409 5.6900619 2.1209546 2.6787628 3.1992275 6.0219381 3.2354775 10.0308453h-26.3715456c.0725 3.4078351 1.16 6.2014021 3.2631591 8.3807011 2.1038181 2.1786391 4.7019545 3.2686185 7.7950681 3.2686185 1.4915228 0 2.9435-.2599588 4.3546137-.7785567 1.4117727-.5192577 2.6113182-1.2087423 3.5999545-2.0684536.9899546-.8597113 2.0596591-2.2472577 3.2104318-4.1639588z" mask="url(#b)"/><path d="m122.040568 15.4117278c-2.098545 0-4.036273.5166186-5.811204 1.5485361-1.77625 1.0332371-3.188682 2.4828041-4.238614 4.3500206-1.049273 1.8678763-1.57325 3.8426392-1.57325 5.9256083 0 2.0651546.52925 4.0405773 1.587091 5.9256082 1.057841 1.8856908 2.4795 3.353732 4.264318 4.4047835 1.784818 1.0503918 3.699477 1.5749279 5.744636 1.5749279 2.062955 0 4.018478-.5212371 5.86591-1.5610722 1.847431-1.043134 3.268431-2.4517938 4.264977-4.2299381.993909-1.7774846 1.492841-3.779299 1.492841-6.0061031 0-3.3933196-1.117159-6.2310928-3.350818-8.5106804-2.231682-2.2809073-4.98141-3.4216908-8.245887-3.4216908zm15.071432-14.21063914v40.66375254h-3.717932v-5.0428041c-1.579182 1.9239588-3.353454 3.3715464-5.319523 4.3414433-1.966727.9712165-4.116681 1.456165-6.451181 1.456165-4.148319 0-7.690932-1.5056495-10.626523-4.5162887-2.93625-3.011299-4.404046-6.6744742-4.404046-10.988866 0-4.2246598 1.480978-7.8376907 4.44425-10.8397526 2.963273-3.0020618 6.527637-4.5037525 10.69375-4.5037525 2.406341 0 4.583978.5126598 6.53225 1.5373196 1.948932 1.0246597 3.659273 2.5613195 5.131023 4.6112989v-16.71851544z" mask="url(#b)"/><path d="m165.475911 6.08184742v13.45583508l6.708228.0811546c2.710841 0 4.696022-.2461031 5.95225-.7396289 1.257545-.4948453 2.244863-1.292536 2.963272-2.3957113s1.077614-2.3369897 1.077614-3.7014433c0-1.3261856-.359205-2.5421856-1.077614-3.64536082-.718409-1.10317525-1.665522-1.88832989-2.842-2.35480412-1.176477-.46647423-3.101681-.70004124-5.777591-.70004124zm-3.959818-3.88354639h7.892614c4.525977 0 7.578227.19793815 9.158727.59381443 2.263318.55686598 4.112727 1.70292784 5.548886 3.43818557 1.436819 1.73459794 2.155228 3.91389687 2.155228 6.53921647 0 2.6424743-.700614 4.8217732-2.101182 6.5385567-1.401227 1.7167835-3.330386 2.8714227-5.791432 3.4652371-1.795364.4315052-5.153432.646598-10.074204.646598h-2.828819v18.4445361h-3.959818z" mask="url(#b)"/><path d="m193.005545 41.8645773h3.771319v-40.66375256h-3.771319z" mask="url(#b)"/><path d="m218.743836 15.4117278c-2.098545 0-4.035613.5166186-5.811863 1.5485361-1.775591 1.0332371-3.188682 2.4828041-4.237955 4.3500206-1.049273 1.8678763-1.57325 3.8426392-1.57325 5.9256083 0 2.0651546.527932 4.0405773 1.586432 5.9256082 1.059159 1.8856908 2.480159 3.353732 4.265636 4.4047835 1.784159 1.0503918 3.698159 1.5749279 5.743978 1.5749279 2.063613 0 4.017818-.5212371 5.865909-1.5610722 1.847432-1.043134 3.267113-2.4517938 4.264977-4.2299381.993909-1.7774846 1.492182-3.779299 1.492182-6.0061031 0-3.3933196-1.1165-6.2310928-3.3495-8.5106804-2.232341-2.2809073-4.983387-3.4216908-8.246546-3.4216908zm15.071432-2.8852783v29.3383917h-3.717273v-5.0428041c-1.581159 1.9239588-3.353454 3.3715464-5.32084 4.3414433-1.96541.9712165-4.116682 1.456165-6.450523 1.456165-4.148977 0-7.691591-1.5056495-10.626523-4.5162887-2.93625-3.011299-4.404704-6.6744742-4.404704-10.988866 0-4.2246598 1.481636-7.8376907 4.444909-10.8397526 2.963272-3.0020618 6.527636-4.5037525 10.693091-4.5037525 2.407659 0 4.583977.5126598 6.532909 1.5373196 1.947613 1.0246597 3.658613 2.5613195 5.131681 4.6112989v-5.3931546z" mask="url(#b)"/><path d="m245.586368 1.63206598h3.771977v10.89451542h5.979273v3.2626805h-5.979273v26.0757113h-3.771977v-26.0757113h-5.145523v-3.2626805h5.145523z" mask="url(#b)"/><path d="m285.668586 24.2294103c-.503545-2.0136907-1.235795-3.622268-2.198727-4.8263917-.961614-1.2047835-2.233659-2.1753402-3.816795-2.9123299-1.581819-.7376495-3.244046-1.1058145-4.988-1.1058145-2.87825 0-5.349841.9256907-7.417409 2.777732-1.509978 1.3479587-2.6535 3.3702268-3.425296 6.0668041zm0 7.9010309 3.178137 1.6719176c-1.042682 2.0493196-2.2475 3.7027628-3.613137 4.9609897-1.365636 1.2588866-2.901318 2.2162474-4.609681 2.8720824-1.707046.6564949-3.640819.9844124-5.798023.9844124-4.781046 0-8.518091-1.5683299-11.215091-4.7056495s-4.044841-6.6830515-4.044841-10.6378557c0-3.7205773 1.142205-7.0380206 3.424636-9.9503505 2.893409-3.7027629 6.766887-5.5548041 11.620432-5.5548041 4.997227 0 8.986046 1.8962474 11.970409 5.6900619 2.120296 2.6787628 3.198568 6.0219381 3.234818 10.0308453h-26.371545c.0725 3.4078351 1.16 6.2014021 3.263159 8.3807011 2.105136 2.1786391 4.701296 3.2686185 7.795068 3.2686185 1.491523 0 2.9435-.2599588 4.354614-.7785567 1.412432-.5192577 2.611977-1.2087423 3.600614-2.0684536.989954-.8597113 2.059659-2.2472577 3.210431-4.1639588z" mask="url(#b)"/></g><path d="m9.0886 62.8227959h-8.75931818v-13.7487835h8.75931818v.8847835h-7.64018182v5.1991752h7.21309091v.8841237h-7.21309091v5.8959176h7.64018182z" fill="#7cb545" mask="url(#b)"/><path d="m.65909091 62.492899h8.10022727v-.2249897h-7.64084091v-6.5557114h7.21375v-.2243299h-7.21375v-5.858969h7.64084091v-.2249897h-8.10022727zm8.75931818.6597938h-9.41840909v-14.4085773h9.41840909v1.5445773h-7.64084091v4.5393814h7.21375v1.5439176h-7.21375v5.2361237h7.64084091z" fill="#77b446" mask="url(#b)"/><path d="m28.0216455 49.0740784h1.2166818l-5.9964091 13.7487835h-.9873182l-5.9746591-13.7487835h1.1955909l4.0342955 9.3571958c.6136136 1.4093196 1.0268636 2.4696083 1.2384318 3.177567.1463182-.470433.4356591-1.2001649.8660454-2.1905154z" fill="#7cb545" mask="url(#b)"/><path d="m22.4709136 62.492899h.1964091l-.2352954-.7897732c-.2049773-.6875052-.6169091-1.7444949-1.2245909-3.1406186l-3.9486137-9.1585979h-.4758636zm.3466819 0h.2089318l5.7083863-13.0889897h-.4956363l-4.3216591 10.1436701c-.4270909.9811134-.7144546 1.7068866-.8548409 2.1595051zm.6399772.6597938h-1.4183636l-6.2620227-14.4085773h1.9146591l4.1206363 9.5564536c.4027046.9256907.7157727 1.6910515.9457955 2.3119175.1463182-.3721237.3302045-.8122062.5542954-1.3255258l4.4910455-10.5428453h1.9377273z" fill="#77b446" mask="url(#b)"/><path d="m46.0990591 62.8227959h-8.7593182v-13.7487835h8.7593182v.8847835h-7.6415v5.1991752h7.21375v.8841237h-7.21375v5.8959176h7.6415z" fill="#7cb545" mask="url(#b)"/><path d="m37.6692205 62.492899h8.1002272v-.2249897h-7.6415v-6.5557114h7.21375v-.2243299h-7.21375v-5.858969h7.6415v-.2249897h-8.1002272zm8.7593181.6597938h-9.4184091v-14.4085773h9.4184091v1.5445773h-7.6415v4.5393814h7.21375v1.5439176h-7.21375v5.2361237h7.6415z" fill="#77b446" mask="url(#b)"/><path d="m67.2134318 62.8227959h-1.1290227l-9.4942046-12.2061856h-.087659c.087659 1.4541856.1318181 2.5507629.1318181 3.2910516v8.915134h-1.0749772v-13.7487835h1.1184772l9.4823409 12.1870515h.0659091c-.0659091-1.1282474-.0982045-2.1997526-.0982045-3.215835v-8.9712165h1.0855227z" fill="#7cb545" mask="url(#b)"/><path d="m66.2450955 62.492899h.638659v-13.0889897h-.4264318v8.6413196c0 1.0101443.0329546 2.0856082.0982046 3.196701l.0204318.3490309h-.5767046l-9.4823409-12.1870515h-.6281136v13.0889897h.4158864v-8.5852371c0-.7277526-.0441591-1.8282887-.1311591-3.2712578l-.0210909-.3496907h.5984545zm1.29775.6597938h-1.6193864l-9.0394318-11.6209485c.0527272 1.0055258.07975 1.8025567.07975 2.3759176v9.2450309h-1.7340682v-14.4085773h1.6095l9.0097727 11.5800412c-.0336136-.7864742-.05075-1.5491959-.05075-2.2789278v-9.3011134h1.7446137z" fill="#77b446" mask="url(#b)"/><path d="m81.760425 62.8227959h-1.1290227v-12.8455258h-5.2074773v-.9032577h11.5439773v.9032577h-5.2074773z" fill="#7cb545" mask="url(#b)"/><path d="m80.9606841 62.492899h.4699318v-12.8455258h5.2081364v-.2434639h-10.8848864v.2434639h5.2068182zm1.1290227.6597938h-1.7881136v-12.8455258h-5.2068182v-1.5630515h12.2030682v1.5630515h-5.2081364z" fill="#77b446" mask="url(#b)"/><path d="m104.025636 59.2770639c0 1.1467217-.491022 2.0552577-1.474386 2.7269279-.983364.6703505-2.289682 1.0061855-3.9196136 1.0061855-1.9581591 0-3.4602273-.1847422-4.5055455-.5548866v-.9586804c1.1547273.4196289 2.6271364.6294433 4.4178864.6294433 1.3155454 0 2.3595457-.2579794 3.1300227-.7752577.771136-.5172784 1.156705-1.1955464 1.156705-2.0361237 0-.5199176-.127864-.9520825-.38425-1.2925361-.255069-.3417732-.671614-.6545155-1.249637-.9355876-.576704-.2823918-1.4242953-.5872165-2.5427725-.9118351-1.6371819-.4836289-2.768841-1.0055258-3.393-1.5663505-.6254773-.5608248-.9372273-1.3083711-.9372273-2.2426392 0-1.0279588.4692727-1.8672165 1.4084773-2.5157938.9392045-.6485773 2.146659-.9738557 3.6236818-.9738557 1.5047047 0 2.9197727.2454433 4.2425677.7343505l-.406.8273815c-1.330704-.4763711-2.60209-.7145567-3.8148177-.7145567-1.1843864 0-2.1268864.2355464-2.8288182.7046598-.7012727.470433-1.0519091 1.110433-1.0519091 1.9186804 0 .5080412.1074318.9243711.3236136 1.2503093.2148637.3272577.5681364.6195464 1.0571819.8801649.4897045.259299 1.3307045.5720413 2.5216818.9355876 1.2496367.3694846 2.1894997.7284124 2.8169547 1.0761238.628773.3483711 1.0875.7429278 1.376182 1.1849896.288681.4414021.433022.9758351.433022 1.603299" fill="#7cb545" mask="url(#b)"/><path d="m94.4556364 62.2171711c.9958863.307464 2.3990909.4631753 4.176.4631753 1.5547956 0 2.8110226-.3193402 3.7337496-.9487835.895705-.6116289 1.330705-1.414598 1.330705-2.454433 0-.5595052-.127205-1.0378557-.378977-1.4218557-.257705-.3952165-.6815-.7574433-1.260182-1.0774433-.603068-.3345154-1.528432-.6875051-2.7503865-1.0490721-1.2054773-.368165-2.0735-.6908042-2.5829773-.96-.5384773-.2870103-.93525-.6202062-1.1784546-.9910103-.2504545-.3767423-.3776591-.8590516-.3776591-1.4310928 0-.921732.4033637-1.6600413 1.1982273-2.1924949.7553182-.505402 1.769-.761402 3.0120455-.761402 1.1593407 0 2.3845907.2150927 3.6474087.6373608l.113364-.2309278c-1.185045-.393897-2.455114-.5931547-3.7825227-.5931547-1.4012273 0-2.5572728.3081237-3.4358409.915134-.8528637.5891959-1.2667728 1.3228866-1.2667728 2.2446186 0 .8445361.2702273 1.4977319.8271591 1.9971959.5846137.5251958 1.6833182 1.0279587 3.2664546 1.4950928 1.1250682.3265979 1.9983637.64 2.5948407.9316288.622182.3028454 1.082227.6518763 1.368932 1.0345567.298568.3971959.4495.8986392.4495 1.4904742 0 .9534021-.438295 1.7306392-1.303023 2.3099382-.821886.5515876-1.9364088.8313402-3.3132497.8313402-1.6015909 0-2.9738182-.1689072-4.0883409-.5027629zm4.176 1.1229691c-1.9865 0-3.5399773-.1933196-4.6156137-.5733608l-.2194772-.0778557v-1.6626804l.4415909.1603299c1.1145227.4051134 2.5632045.6096495 4.3058409.6096495 1.2437045 0 2.2349777-.2421443 2.9467957-.7198351.680182-.4559175 1.010386-1.0319175 1.010386-1.7616495 0-.4453608-.106773-.8135257-.317682-1.0945979-.223432-.2988866-.603727-.5799588-1.130341-.8372783-.563522-.2751341-1.4012269-.5746805-2.4913633-.8913815-1.7024318-.5021031-2.8538636-1.0385155-3.5208636-1.6376082-.6946818-.6228454-1.0466364-1.4601237-1.0466364-2.4880825 0-1.1381443.522-2.0763711 1.5508409-2.7869691.9912728-.684866 2.2738637-1.0325773 3.8108637-1.0325773 1.5350227 0 3.0008407.2540206 4.3559317.7548041l.342727.1260206-.696 1.4205361-.276818-.0996288c-1.289182-.4611959-2.535523-.6954227-3.7040907-.6954227-1.1105682 0-2.001.2190515-2.6455909.6498969-.609.4084124-.9055909.9461443-.9055909 1.6442062 0 .4400824.0902954.7990103.26825 1.0675464.1832272.278433.4982727.5377319.9378863.7712989.47125.2500619 1.3003864.556866 2.4630227.9111753 1.2654545.3741031 2.2356365.7462268 2.8802275 1.103835.673591.3727835 1.175818.8075877 1.492182 1.2931959.322954.492866.487068 1.0932784.487068 1.7834227 0 1.2569072-.544409 2.2663917-1.618068 2.9994227-1.034773.7059794-2.416228 1.0635876-4.1054776 1.0635876z" fill="#77b446" mask="url(#b)"/><path d="m120.897507 51.7641897c0 .4941856.146318.9520825.437636 1.3717113.291977.4209485.84825.9659382 1.666841 1.6369485 1.161977-.5331134 1.969364-1.0312577 2.422818-1.4950928.452796-.4638351.679523-.9936495.679523-1.5887835 0-.5898557-.226727-1.0675464-.679523-1.4343918-.453454-.3668453-1.067068-.550268-1.842159-.550268-.832432 0-1.488886.1814433-1.967386.5449897-.4785.3642062-.71775.8689484-.71775 1.5148866m2.246841 10.4003299c.93525 0 1.792068-.1372371 2.571113-.409732.779046-.2724948 1.543591-.7317113 2.296273-1.3776495l-5.295136-4.5604948c-.993909.451299-1.711659.835299-2.153909 1.1513402-.44225.316701-.763228.6604536-.964909 1.0305979-.200364.3701444-.301864.8023093-.301864 1.2971547 0 .8966598.34075 1.5993402 1.019614 2.1067216.680181.5073815 1.62334.7620619 2.828818.7620619m-4.988-2.8305155c0-.8656495.268909-1.6026392.805409-2.2103093.537818-.6089896 1.540295-1.2503092 3.009409-1.9279175l-.821886-.7706392c-.482455-.4460206-.841-.8814845-1.074319-1.3070515-.234636-.4268866-.350636-.8715876-.350636-1.3354227 0-.8966598.349318-1.6085773 1.046636-2.134433.697978-.5265154 1.635205-.790433 2.811682-.790433 1.132977 0 2.03.2533609 2.691727.7620619.661728.5080412.992591 1.2094021.992591 2.1060618 0 .6578145-.256386 1.2615258-.767181 1.8104743-.512773.5489484-1.436819 1.1579381-2.774114 1.8289484l4.954386 4.2972371c.446864-.4512989.8265-.9435051 1.140887-1.4766185.313727-.5324536.587909-1.1625567.822545-1.8896495h1.05125c-.459386 1.5419381-1.222614 2.8773608-2.289682 4.0056082l2.915818 2.5210722h-1.480977l-2.115682-1.8533608c-.672272.5647835-1.272045.9764948-1.798659 1.2371134-.525295.2599588-1.100682.4592165-1.7255.5957938-.624818.1392165-1.335977.2078351-2.132159.2078351-1.527113 0-2.727977-.3226392-3.601273-.9685774-.873295-.6459381-1.310272-1.548536-1.310272-2.7077938" fill="#7cb545" mask="url(#b)"/><path d="m123.582775 50.0341443c-.755318 0-1.350477.1609897-1.768341.4783505-.395454.300866-.58725.7099382-.58725 1.2516289 0 .4295258.123909.8168248.378318 1.1836701.25375.364866.740159.8478351 1.446046 1.4383505 1.020272-.4809897 1.738682-.930969 2.137432-1.3393814.394136-.403134.585931-.8478351.585931-1.3578557 0-.4889072-.182568-.8742268-.557591-1.1777319-.3915-.3167011-.941181-.477031-1.634545-.477031zm-.630091 5.1246186-.1595-.131299c-.851545-.697402-1.417045-1.2549278-1.728795-1.7035876-.329546-.4730722-.496296-.9982681-.496296-1.5597526 0-.7515051.284727-1.3492783.847591-1.7774845.535182-.4057732 1.264796-.6122887 2.167091-.6122887.847591 0 1.537.2098144 2.048455.6235052.532545.4308453.802772.9995876.802772 1.6910515 0 .681567-.260341 1.2938557-.773772 1.8197114-.48641.4974845-1.310932 1.0088247-2.520364 1.5637113zm-.290659 1.0457732c-.871318.4024742-1.511955.748866-1.908068 1.0319175-.398091.2856907-.690068.595134-.866705.9204124-.173341.3193402-.261659.7026804-.261659 1.1388041 0 .793732.290659 1.3961237.887137 1.8428041.619545.4611959 1.504704.6960825 2.63175.6960825.89109 0 1.720227-.131299 2.462363-.3912577.633387-.2216908 1.26875-.5812784 1.892909-1.072165zm.482455 6.2898144c-1.271387 0-2.289682-.278433-3.025887-.8267216-.764545-.5720413-1.152091-1.369732-1.152091-2.3719588 0-.5476289.114682-1.0365361.342068-1.4548454.224091-.4130309.581978-.7970309 1.062455-1.1407835.465318-.332536 1.187682-.719835 2.209273-1.1836701l.191795-.0870927 5.745955 4.9484536-.291978.2500618c-.781681.6703505-1.589727 1.1546392-2.402386 1.4376907-.812.2843712-1.713636.428866-2.679204.428866zm.438295-13.3067216c-1.096727 0-1.976614.2434639-2.613955.7237938-.61559.4651546-.914818 1.0767835-.914818 1.8711752 0 .4117114.100841.7963712.309773 1.1764124.214864.3912577.554295.8029691 1.009068 1.2239175l1.181091 1.1077938-.444886.2045361c-1.421.6558351-2.397114 1.2767011-2.9 1.8467629-.487068.5509279-.723023 1.2021443-.723023 1.9919175 0 1.0576495.384909 1.8566598 1.176477 2.4425567.811341.5997526 1.956841.9039176 3.405523.9039176.772455 0 1.465818-.067299 2.060977-.1999176.593182-.1293195 1.148137-.3213195 1.651023-.569402.502886-.2494021 1.086182-.6512165 1.732091-1.1942268l.216182-.1814433 2.235636 1.9576082h.47125l-2.507182-2.1667629.237273-.2507216c.927341-.9804536 1.625318-2.1390516 2.077455-3.4494021h-.361841c-.22475.6531959-.485091 1.2331547-.776409 1.7273402-.327569.5555464-.727637 1.0741444-1.190319 1.5406186l-.216841.2190515-5.56009-4.8217732.440931-.2210309c1.295114-.6498969 2.197409-1.2417319 2.680523-1.7596701.456091-.4902268.678205-1.0081649.678205-1.5848247 0-.7950516-.282091-1.3987629-.863409-1.8441237-.599114-.4611959-1.437478-.6941031-2.490705-.6941031zm-.51475 14.1525773c-1.592364 0-2.869682-.3470516-3.797023-1.0325773-.958318-.7099382-1.444068-1.7095258-1.444068-2.9736908 0-.9441649.298568-1.7609896.888455-2.428701.51475-.5839175 1.393318-1.174433 2.676568-1.7999175l-.467955-.4387629c-.505522-.4677938-.889113-.9355876-1.13825-1.3901856-.259682-.4724123-.390841-.9751752-.390841-1.4937732 0-1.001567.396114-1.8084948 1.177796-2.3976907.754-.569402 1.767023-.8570721 3.010068-.8570721 1.201523 0 2.175.2797525 2.892091.8306804.744114.5707216 1.121114 1.3677525 1.121114 2.3673402 0 .7409484-.288023 1.4251546-.8555 2.0348041-.485091.5205773-1.282591 1.0708454-2.430069 1.6752165l4.348023 3.7707216c.334818-.3675051.630091-.7666804.878568-1.1876288.299887-.5093609.566818-1.1236289.792228-1.8236701l.073818-.2289485h1.734068l-.126546.4242474c-.438295 1.4706805-1.155386 2.7764124-2.133477 3.8842062l3.329068 2.8780206h-2.490045l-1.998364-1.7504329c-.60175.4869278-1.154068.8564123-1.646409 1.0998762-.550341.2724949-1.156045.4816495-1.800636.6228454-.640637.1431753-1.382114.2150928-2.202682.2150928z" fill="#77b446" mask="url(#b)"/><path d="m153.587823 49.7422515c-2.009568 0-3.591387.5515877-4.746114 1.6547629-1.156045 1.1038351-1.73275 2.6141031-1.73275 4.5327835 0 1.961567.544409 3.485031 1.633227 4.569732 1.089478 1.0840412 2.645591 1.6270515 4.670319 1.6270515 1.343886 0 2.579681-.147134 3.70475-.4420618v.8471752c-1.05916.3180207-2.382614.4783506-3.968387.4783506-2.250136 0-4.023091-.6235052-5.316227-1.8718351-1.293796-1.2463505-1.940364-2.9895258-1.940364-5.2268866 0-1.3994227.309114-2.6305979.926023-3.6961649.617568-1.065567 1.506023-1.8889897 2.664045-2.4682887 1.158682-.5799588 2.505205-.870268 4.039569-.870268 1.564022 0 2.963272.2507216 4.198409.7521649l-.448182.8656495c-1.170546-.5021031-2.398432-.752165-3.684318-.752165" fill="#7cb545" mask="url(#b)"/><path d="m153.522177 49.2061691c-1.474386 0-2.784659.2810721-3.891932.8359587-1.09409.5469691-1.944318 1.3334433-2.526954 2.3389691-.584614 1.0101443-.881205 2.198433-.881205 3.5298969 0 2.1350928.618228 3.8136083 1.838864 4.9900206 1.223932 1.181031 2.935591 1.779464 5.088182 1.779464 1.42825 0 2.650863-.1339382 3.638841-.3985155v-.1774845c-1.036091.2329072-2.169068.3516701-3.375205.3516701-2.104477 0-3.754182-.5799588-4.902318-1.7227217-1.148795-1.1440825-1.730773-2.7599175-1.730773-4.8039588 0-2.0037938.616909-3.6084123 1.834909-4.770969 1.212728-1.158598 2.8855-1.7464743 4.9735-1.7464743 1.222614 0 2.408319.2230104 3.530091.662433l.139068-.2691958c-1.10925-.3971959-2.3635-.5990928-3.735068-.5990928m-.373045 14.1341031c-2.329227 0-4.194455-.6611134-5.544932-1.9642062-1.354432-1.3050722-2.041205-3.1432578-2.041205-5.4650722 0-1.449567.32625-2.748701.970182-3.8611134.648546-1.1190103 1.591046-1.9925773 2.801796-2.598268 1.200863-.6004124 2.608682-.9052371 4.187204-.9052371 1.598296 0 3.05225.2612783 4.321659.7772371l.334819.1359175-.75466 1.4588041-.28209-.1207422c-1.121773-.4809897-2.317364-.7257732-3.553819-.7257732-1.912681 0-3.432545.5258556-4.519386 1.5637113-1.081568 1.0332371-1.629932 2.4775258-1.629932 4.2939381 0 1.862598.516727 3.3207423 1.536341 4.336165 1.019614 1.0160825 2.513114 1.5307216 4.437659 1.5307216 1.311591 0 2.53025-.1451546 3.621046-.4308453l.41325-.1082062v1.5195051l-.234637.070598c-1.088159.3272577-2.455113.492866-4.063295.492866" fill="#77b446" mask="url(#b)"/><path d="m168.135475 57.1050227h5.733432l-2.181591-4.9563712c-.183227-.3886185-.402046-.9270103-.657773-1.6171546-.198386.601732-.41325 1.1473815-.646568 1.6369485zm6.105818.8649897h-6.511159l-2.236295 4.8527835h-1.23975l6.447227-13.804866h.711818l6.314091 13.804866h-1.260182z" fill="#7cb545" mask="url(#b)"/><path d="m168.647786 56.7751258h4.715796l-1.978591-4.4938557c-.103477-.2197113-.218159-.486268-.345364-.8036289-.115341.2942681-.235954.5727011-.359204.832zm5.726182.6597938h-6.751068l2.460386-5.4030516c.226069-.4763711.438955-1.0147628.633387-1.6032989l.293954-.8940206.327568.8821443c.252432.6809072.470591 1.216.646569 1.5914227zm2.304182 5.0579794h.535182l-6.012227-13.1450722h-.29l-6.138773 13.1450722h.510795l2.235637-4.8527835h6.933636zm1.562705.6597938h-1.985182l-2.22575-4.8527835h-6.088682l-2.236296 4.8527835h-1.968704l6.755023-14.4646598h1.133636z" fill="#77b446" mask="url(#b)"/><path d="m190.005166 62.8227959h-1.129023v-12.8455258h-5.206818v-.9032577h11.543977v.9032577h-5.208136z" fill="#7cb545" mask="url(#b)"/><path d="m189.205755 62.492899h.469931v-12.8455258h5.208137v-.2434639h-10.884887v.2434639h5.206819zm1.129022.6597938h-1.788113v-12.8455258h-5.206819v-1.5630515h12.203069v1.5630515h-5.208137z" fill="#77b446" mask="url(#b)"/><path d="m212.183839 62.8227959h-8.759978v-13.7487835h8.759978v.8847835h-7.6415v5.1991752h7.214409v.8841237h-7.214409v5.8959176h7.6415z" fill="#7cb545" mask="url(#b)"/><path d="m203.753407 62.492899h8.100886v-.2249897h-7.6415v-6.5557114h7.214409v-.2243299h-7.214409v-5.858969h7.6415v-.2249897h-8.100886zm8.759977.6597938h-9.419068v-14.4085773h9.419068v1.5445773h-7.6415v4.5393814h7.214409v1.5439176h-7.214409v5.2361237h7.6415z" fill="#77b446" mask="url(#b)"/><path d="m222.762775 56.0044866h3.057523c1.352454 0 2.401727-.259299 3.147159-.7759175.745432-.5166186 1.118477-1.28 1.118477-2.2894846 0-1.046433-.366454-1.8091546-1.096727-2.2842061-.730932-.4776908-1.921909-.7152165-3.573591-.7152165h-2.652841zm0 .8273814v5.9909279h-1.118477v-13.7487835h3.815477c1.987159 0 3.456273.3153814 4.406023.9454845.950409.6301031 1.424954 1.577567 1.424954 2.8443711 0 .921732-.28275 1.6983093-.849568 2.3317114-.566159.6327422-1.426273 1.088-2.582318 1.3644536l4.353954 6.2627629h-1.337295l-4.133818-5.9909279z" fill="#7cb545" mask="url(#b)"/><path d="m223.09232 55.6745897h2.727978c1.277318 0 2.273204-.2408248 2.959318-.7171959.657773-.4552577.976773-1.1157113.976773-2.0183093 0-.9355876-.309114-1.593402-.946455-2.0077525-.672932-.4394227-1.814477-.6617732-3.394318-.6617732h-2.323296zm2.727978.6597938h-3.387068v-6.7246186h2.982386c1.733409 0 2.961954.2507217 3.754182.7686598.8265.5383918 1.245682 1.4000825 1.245682 2.5606598 0 1.1196701-.423796 1.9807011-1.260182 2.5606598-.798818.553567-1.92125.8346392-3.335.8346392zm5.227909 6.1585155h.533863l-4.26959-6.1420206.469931-.112165c1.082887-.2586392 1.894887-.6842062 2.413591-1.2635052.515409-.576.765205-1.2661443.765205-2.1113402 0-1.1592577-.417205-1.9991752-1.277318-2.5692371-.891091-.5911752-2.312091-.8907216-4.224114-.8907216h-3.485932v13.0889897h.459387v-5.9909279h4.481818zm1.795363.6597938h-2.141386l-4.133818-5.9909279h-3.476046v5.9909279h-1.777568v-14.4085773h4.145023c2.043841 0 3.587432.3364948 4.588591 1.0002474 1.043341.6921237 1.571932 1.7411959 1.571932 3.1195051 0 1.0009073-.313728 1.859299-.933932 2.5514227-.52925.5931547-1.298409 1.0424742-2.289023 1.3413608z" fill="#77b446" mask="url(#b)"/><path d="m240.817977 62.8229278h1.118478v-13.7487835h-1.118478z" fill="#7cb545" mask="url(#b)"/><path d="m241.147523 62.4930309h.459386v-13.0889897h-.459386zm-.658432.6597938h1.777568v-14.4085773h-1.777568z" fill="#77b446" mask="url(#b)"/><path d="m263.95978 62.8227959h-1.129023l-9.493546-12.2061856h-.087659c.087659 1.4541856.131159 2.5507629.131159 3.2910516v8.915134h-1.074977v-13.7487835h1.119136l9.483 12.1870515h.06591c-.06591-1.1282474-.098864-2.1997526-.098864-3.215835v-8.9712165h1.084864z" fill="#7cb545" mask="url(#b)"/><path d="m262.991773 62.492899h.638659v-13.0889897h-.426432v8.6413196c0 .9976082.033614 2.0724123.098864 3.196701l.020431.3490309h-.510136l-.164773-.1273402-9.384795-12.0597113h-.628114v13.0889897h.415887v-8.5852371c0-.729732-.0435-1.8302681-.1305-3.2712578l-.02175-.3496907h.599113zm1.29775.6597938h-1.619387l-9.038772-11.6209485c.052727 1.0042062.079091 1.8012371.079091 2.3759176v9.2450309h-1.734069v-14.4085773h1.6095l9.010432 11.5793814c-.033613-.7924124-.051409-1.5557938-.051409-2.278268v-9.3011134h1.744614z" fill="#77b446" mask="url(#b)"/><path d="m280.634055 55.8917278h5.90875v6.2726598c-1.548864.5641237-3.2915.8458557-5.229228.8458557-2.528272 0-4.466659-.6129485-5.815818-1.8381856-1.347841-1.2258969-2.022091-2.9604948-2.022091-5.2057732 0-1.3974433.334159-2.6371958 1.002477-3.7185979.669637-1.0807423 1.627296-1.916701 2.872319-2.5052371 1.245681-.5898557 2.677227-.8847835 4.292659-.8847835 1.745932 0 3.313909.2757938 4.702613.8280412l-.4495.8643299c-1.388704-.5515876-2.828159-.8273814-4.318363-.8273814-2.112387 0-3.788455.5601649-5.026887 1.6791752-1.238431 1.1190103-1.859295 2.6279588-1.859295 4.528165 0 2.0684536.589886 3.6242474 1.766364 4.668701 1.176477 1.043134 2.903954 1.5656907 5.185068 1.5656907 1.475704 0 2.729295-.1788041 3.760113-.5370721v-4.8329897h-4.769181z" fill="#7cb545" mask="url(#b)"/><path d="m281.643255 49.1874969c-1.55875 0-2.955364.2870103-4.152273.8531134-1.181091.5588454-2.099864 1.3598351-2.732591 2.3805361-.632727 1.024-.953705 2.217567-.953705 3.5450722 0 2.1370721.644591 3.8056907 1.914659 4.9616494 1.279955 1.1632165 3.162978 1.7524124 5.594364 1.7524124 1.800636 0 3.447046-.2520412 4.899682-.7495258v-5.7091958h-5.249659v.2428041h4.769182v5.3977732l-.221455.0771959c-1.059818.3681649-2.361523.5548866-3.868204.5548866-2.351637 0-4.16941-.5548866-5.403228-1.6488248-1.246341-1.1058144-1.87775-2.7599175-1.87775-4.9154639 0-1.9879588.662387-3.5938969 1.967387-4.7729485 1.295113-1.1704742 3.060818-1.7636288 5.247681-1.7636288 1.425614 0 2.824864.249402 4.16216.7435876l.142363-.2738144c-1.260182-.448-2.684477-.6756289-4.238613-.6756289m-.329546 14.1525773c-2.600773 0-4.632091-.6472577-6.037273-1.9239587-1.41375-1.2859382-2.130841-3.1195052-2.130841-5.4498969 0-1.4522062.354591-2.761897 1.052569-3.8921238.700613-1.1315463 1.714295-2.0163299 3.010727-2.6299381 1.285886-.6083299 2.777409-.9164536 4.434364-.9164536 1.780204 0 3.402886.2863505 4.823886.851134l.339432.134598-.755318 1.4528659-.27616-.1095257c-1.343886-.5331134-2.755659-.8036289-4.19775-.8036289-2.018136 0-3.635545.5357526-4.80609 1.5940618-1.16066 1.0484124-1.749887 2.4894021-1.749887 4.2827217 0 1.9589278.556932 3.4467629 1.655637 4.4219381 1.10925.9837526 2.780704 1.4825567 4.96625 1.4825567 1.328727 0 2.480818-.1497732 3.430568-.4460206v-4.2642474h-4.769182v-1.5623918h6.567841v6.8334846l-.2175.0791752c-1.575887.5746805-3.373227.8656495-5.341273.8656495" fill="#77b446" mask="url(#b)"/></g></g></g></svg>