<?xml version="1.0" encoding="UTF-8"?>
<svg width="417px" height="104px" viewBox="0 0 417 104" version="1.1" xmlns="http://www.w3.org/2000/svg" xmlns:xlink="http://www.w3.org/1999/xlink">
    <!-- Generator: Sketch 51.3 (57544) - http://www.bohemiancoding.com/sketch -->
    <title>logo</title>
    <desc>Created with Sketch.</desc>
    <defs>
        <polygon id="path-1" points="0 0.108394366 103.758063 0.108394366 103.758063 103.633803 0 103.633803"></polygon>
        <polygon id="path-3" points="0 0.446020619 289.816114 0.446020619 289.816114 63.3402062 0 63.3402062"></polygon>
    </defs>
    <g id="Landing" stroke="none" stroke-width="1" fill="none" fill-rule="evenodd">
        <g id="Landing-v2" transform="translate(-376.000000, -99.000000)">
            <g id="logo" transform="translate(376.000000, 99.000000)">
                <g id="Group-22">
                    <g id="Group-3" transform="translate(0.000000, 0.257803)">
                        <mask id="mask-2" fill="white">
                            <use xlink:href="#path-1"></use>
                        </mask>
                        <g id="Clip-2"></g>
                        <path d="M44.1688365,103.633803 C44.0516996,103.633803 43.9331032,103.624648 43.8134119,103.605972 C31.7238681,101.711634 20.6385628,95.5229014 12.5988154,86.1801127 C4.47440842,76.7384507 -0.000145964912,64.660169 -0.000145964912,52.1699155 C-0.000145964912,23.4633521 23.2728646,0.108394366 51.879433,0.108394366 C80.4852716,0.108394366 103.758282,23.4633521 103.758282,52.1699155 C103.758282,75.9584507 87.742647,96.6965634 64.8111944,102.600761 C63.5880084,102.916789 62.3432926,102.176338 62.0294681,100.949211 C61.7156435,99.7220845 62.4524014,98.4722535 63.6752225,98.1576901 C84.5839663,92.7738592 99.187026,73.8630704 99.187026,52.1699155 C99.187026,25.9926761 77.9648225,4.69574648 51.879433,4.69574648 C25.7936786,4.69574648 4.57111018,25.9926761 4.57111018,52.1699155 C4.57111018,63.5597465 8.65082947,74.573493 16.0589137,83.1816901 C23.3910961,91.7027324 33.4984365,97.3465634 44.5184225,99.0735493 C45.7656926,99.2690986 46.6188575,100.442028 46.4243593,101.69369 C46.2481067,102.825239 45.2756154,103.633437 44.1688365,103.633803" id="Fill-1" fill="#77B446" mask="url(#mask-2)"></path>
                    </g>
                    <path d="M59.8675453,103.64413 C57.867826,103.64413 55.6345628,103.23582 53.6954189,101.891876 C50.7064225,99.8213972 49.1909418,96.1674817 49.1909418,91.0315662 L49.1909418,31.4245521 C49.1909418,30.1578761 50.2141558,29.1310592 51.4763874,29.1310592 C52.7386189,29.1310592 53.7621979,30.1578761 53.7621979,31.4245521 L53.7621979,91.0315662 C53.7621979,94.5701296 54.6135382,96.953707 56.2921347,98.1167493 C59.1417347,100.090552 63.8425347,98.3877352 63.8892435,98.3708901 C65.0682751,97.9208338 66.3892575,98.517369 66.8370049,99.7020169 C67.2843874,100.886665 66.6903102,102.210834 65.5101839,102.659792 C65.3408646,102.724242 62.8667593,103.64413 59.8675453,103.64413" id="Fill-4" fill="#77B446"></path>
                    <path d="M51.4756211,73.6154479 C50.9289825,73.6154479 50.3808842,73.4198986 49.9437193,73.023307 C49.0073544,72.1737296 48.9343719,70.7235887 49.7806035,69.7839268 L77.3081263,39.2214761 C78.1543579,38.2814479 79.5997754,38.2082085 80.5365053,39.0577859 C81.4728702,39.9069972 81.5454877,41.3575042 80.6992561,42.2971662 L53.1717333,72.8596169 C52.7207018,73.3605746 52.0992561,73.6154479 51.4756211,73.6154479" id="Fill-6" fill="#77B446"></path>
                    <path d="M50.8168814,87.0469014 C50.1633235,87.0469014 49.5145095,86.7667606 49.0623832,86.2244225 L28.0157025,60.9685352 C27.2059621,59.9966479 27.3344112,58.5505352 28.3028884,57.7375775 C29.2717305,56.9249859 30.713134,57.0542535 31.5221446,58.0257746 L52.5688253,83.2820282 C53.3785656,84.2535493 53.2501165,85.7000282 52.2820042,86.5126197 C51.8539621,86.871493 51.3339621,87.0469014 50.8168814,87.0469014" id="Fill-8" fill="#77B446"></path>
                    <path d="M29.7891761,71.1788085 C29.4392253,71.1788085 29.0878147,71.163062 28.7345796,71.131569 C25.6382989,70.8543577 22.8346779,69.3837099 20.8411621,66.9902451 C20.0317867,66.0187239 20.1606007,64.5718789 21.1290779,63.7596535 C22.0975551,62.947062 23.5389586,63.0763296 24.348334,64.0482169 C25.5587481,65.5012873 27.2606989,66.3940761 29.1410919,66.5625268 C31.0207551,66.7295127 32.8548042,66.1538507 34.303506,64.9388085 C35.7522077,63.7234 36.6422288,62.0147239 36.8100884,60.1273437 C36.9775832,58.2399634 36.4024814,56.3998225 35.1906077,54.9460197 C34.3808674,53.9744986 34.5089516,52.5276535 35.4770639,51.715062 C36.4455411,50.9024704 37.8865796,51.0310056 38.6966849,52.0025268 C40.6920253,54.3963577 41.6393375,57.4262732 41.3630989,60.5345549 C41.0868604,63.6424704 39.6210077,66.4563296 37.2355761,68.4579634 C35.1220042,70.2314563 32.5106919,71.1788085 29.7891761,71.1788085" id="Fill-10" fill="#77B446"></path>
                    <path d="M29.7702737,61.7909042 C29.1167158,61.7909042 28.4679018,61.5111296 28.0157754,60.9687915 L24.1385825,56.3173549 C23.3288421,55.3454676 23.4572912,53.8989887 24.4254035,53.0863972 C25.3938807,52.2734394 26.8349193,52.402707 27.6450246,53.3742282 L31.5222175,58.0256648 C32.3323228,58.9971859 32.2035088,60.4436648 31.2353965,61.2566225 C30.8077193,61.6154958 30.2873544,61.7909042 29.7702737,61.7909042" id="Fill-12" fill="#77B446"></path>
                    <path d="M36.944887,55.7679493 C36.2909642,55.7679493 35.6421502,55.4881746 35.1900239,54.9454704 L31.3901923,50.3848507 C30.5808168,49.4129634 30.709266,47.9664845 31.6777432,47.153893 C32.6458554,46.3413014 34.0876239,46.470569 34.8973642,47.4424563 L38.6971958,52.0030761 C39.5069361,52.9749634 39.3781221,54.4214423 38.4096449,55.2340338 C37.9819677,55.5925408 37.4619677,55.7679493 36.944887,55.7679493" id="Fill-14" fill="#77B446"></path>
                    <path d="M22.5960618,67.8131268 C21.9421389,67.8131268 21.2936898,67.5333521 20.8411986,66.9906479 L17.0753039,62.4706761 C16.2655635,61.4987887 16.3943775,60.0526761 17.3628547,59.2397183 C18.330967,58.427493 19.7723705,58.5563944 20.5821109,59.5282817 L24.3483705,64.0482535 C25.1581109,65.0201408 25.0292968,66.4662535 24.0608196,67.2792113 C23.6331425,67.6377183 23.1131425,67.8131268 22.5960618,67.8131268" id="Fill-16" fill="#77B446"></path>
                    <path d="M51.4756211,21.2284873 C47.3524772,21.2284873 43.9978386,25.6356704 43.9978386,31.0528254 C43.9978386,36.4696141 47.3524772,40.8767972 51.4756211,40.8767972 C55.5991298,40.8767972 58.9537684,36.4696141 58.9537684,31.0528254 C58.9537684,25.6356704 55.5991298,21.2284873 51.4756211,21.2284873 M51.4756211,45.4637831 C44.8316632,45.4637831 39.4269474,38.998938 39.4269474,31.0528254 C39.4269474,23.1059803 44.8316632,16.6415014 51.4756211,16.6415014 C58.1195789,16.6415014 63.5253895,23.1059803 63.5253895,31.0528254 C63.5253895,38.998938 58.1195789,45.4637831 51.4756211,45.4637831" id="Fill-18" fill="#77B446"></path>
                    <path d="M73.0450021,70.0981239 C72.7738723,70.0981239 72.5023775,70.0483211 72.24256,69.9483493 C71.7732828,69.7670817 70.6770863,69.3433915 62.1520056,60.4004901 C61.3389811,59.5472507 61.3689039,58.1937859 62.2191495,57.3775324 C63.0693951,56.5609127 64.4181109,56.591307 65.2318653,57.4445465 C67.6629109,59.9951099 70.4782091,62.8459549 72.2808758,64.5597577 C73.7810302,59.7028845 76.468974,47.7311662 77.596553,39.8908845 C77.7647775,38.7223493 78.8467425,37.9137859 80.0097179,38.0800394 C81.1745179,38.2488563 81.9824337,39.3331662 81.8142091,40.5017014 C81.1898442,44.842969 79.8856477,51.5392507 78.4920477,57.562462 C75.8956968,68.7820113 75.0334091,69.2895606 74.1995846,69.7802648 C73.8412407,69.9911944 73.4434863,70.0981239 73.0450021,70.0981239" id="Fill-20" fill="#77B446"></path>
                </g>
                <g id="Group-44" transform="translate(127.000000, 22.000000)">
                    <polygon id="Fill-1" fill="#808184" points="0.0842318182 2.41260206 0.0842318182 42.0787464 19.2901409 42.0787464 19.2901409 38.2499629 4.04339091 38.2499629 4.04339091 2.41260206"></polygon>
                    <g id="Group-43" transform="translate(0.000000, 0.213905)">
                        <mask id="mask-4" fill="white">
                            <use xlink:href="#path-3"></use>
                        </mask>
                        <g id="Clip-3"></g>
                        <path d="M24.3810909,41.8645773 L28.1524091,41.8645773 L28.1524091,12.5261856 L24.3810909,12.5261856 L24.3810909,41.8645773 Z M26.2535682,0.446020619 C27.1117045,0.446020619 27.8452727,0.751505155 28.4522955,1.36247423 C29.0606364,1.9734433 29.3644773,2.71043299 29.3644773,3.5734433 C29.3644773,4.41863918 29.0606364,5.14705155 28.4522955,5.75802062 C27.8452727,6.36898969 27.1117045,6.67447423 26.2535682,6.67447423 C25.4125682,6.67447423 24.6888864,6.36898969 24.0805455,5.75802062 C23.4735227,5.14705155 23.1690227,4.41863918 23.1690227,3.5734433 C23.1690227,2.71043299 23.4735227,1.9734433 24.0805455,1.36247423 C24.6888864,0.751505155 25.4125682,0.446020619 26.2535682,0.446020619 Z" id="Fill-2" fill="#808184" mask="url(#mask-4)"></path>
                        <path d="M48.0586023,1.20102268 L48.0586023,4.89520825 C46.6758295,4.30139381 45.4907841,4.00514639 44.5028068,4.00514639 C43.7666023,4.00514639 43.1562841,4.1536 42.6711932,4.45050722 C42.1867614,4.74675464 41.8809432,5.08852784 41.7557159,5.47516701 C41.6298295,5.86114639 41.5672159,6.89042474 41.5672159,8.56234227 L41.5639205,12.5263835 L47.6816023,12.5263835 L47.6816023,15.7890639 L41.5612841,15.7890639 L41.5401932,41.8647753 L37.768875,41.8647753 L37.768875,15.7890639 L33.9164886,15.7890639 L33.9164886,12.5263835 L37.768875,12.5263835 L37.768875,7.94213608 C37.768875,5.8387134 37.9619886,4.33768247 38.3482159,3.4390433 C38.7344432,2.53974433 39.3895795,1.81661031 40.3142841,1.26832165 C41.2389886,0.72003299 42.3574659,0.445558763 43.6677386,0.445558763 C44.8890341,0.445558763 46.352875,0.696940206 48.0586023,1.20102268" id="Fill-4" fill="#808184" mask="url(#mask-4)"></path>
                        <polygon id="Fill-5" fill="#808184" mask="url(#mask-4)" points="56.59785 1.63206598 60.3691682 1.63206598 60.3691682 12.5265814 66.3484409 12.5265814 66.3484409 15.7892619 60.3691682 15.7892619 60.3691682 41.8649732 56.59785 41.8649732 56.59785 15.7892619 51.4529864 15.7892619 51.4529864 12.5265814 56.59785 12.5265814"></polygon>
                        <path d="M96.6797386,24.2294103 C96.1761932,22.2157196 95.4432841,20.6071423 94.4816705,19.4030186 C93.5193977,18.1982351 92.2473523,17.2276784 90.664875,16.4906887 C89.0823977,15.7530392 87.4195114,15.3848742 85.6762159,15.3848742 C82.798625,15.3848742 80.326375,16.3105649 78.2594659,18.1626062 C76.7488295,19.5105649 75.606625,21.532833 74.8335114,24.2294103 L96.6797386,24.2294103 Z M96.6797386,32.1304412 L99.857875,33.8023588 C98.8158523,35.8516784 97.6110341,37.5051216 96.2453977,38.7633485 C94.8797614,40.0222351 93.3427614,40.9795959 91.6343977,41.6354309 C89.9266932,42.2919258 87.9948977,42.6198433 85.8383523,42.6198433 C81.0566477,42.6198433 77.3182841,41.0515134 74.6226023,37.9141938 C71.9256023,34.7768742 70.5777614,31.2311423 70.5777614,27.2763381 C70.5777614,23.5557608 71.7186477,20.2383175 74.0017386,17.3259876 C76.8958068,13.6232247 80.768625,11.7711835 85.6221705,11.7711835 C90.6187386,11.7711835 94.608875,13.6674309 97.5925795,17.4612454 C99.7135341,20.1400082 100.791807,23.4831835 100.828057,27.4920907 L74.4565114,27.4920907 C74.5290114,30.8999258 75.6165114,33.6934928 77.7196705,35.8727918 C79.8234886,38.0514309 82.421625,39.1414103 85.5147386,39.1414103 C87.0062614,39.1414103 88.4582386,38.8814515 89.8693523,38.3628536 C91.281125,37.8435959 92.4806705,37.1541113 93.4693068,36.2944 C94.4592614,35.4346887 95.5289659,34.0471423 96.6797386,32.1304412 Z" id="Fill-6" fill="#808184" mask="url(#mask-4)"></path>
                        <path d="M122.040568,15.4117278 C119.942023,15.4117278 118.004295,15.9283464 116.229364,16.9602639 C114.453114,17.993501 113.040682,19.443068 111.99075,21.3102845 C110.941477,23.1781608 110.4175,25.1529237 110.4175,27.2358928 C110.4175,29.3010474 110.94675,31.2764701 112.004591,33.161501 C113.062432,35.0471918 114.484091,36.515233 116.268909,37.5662845 C118.053727,38.6166763 119.968386,39.1412124 122.013545,39.1412124 C124.0765,39.1412124 126.032023,38.6199753 127.879455,37.5801402 C129.726886,36.5370062 131.147886,35.1283464 132.144432,33.3502021 C133.138341,31.5727175 133.637273,29.5709031 133.637273,27.344099 C133.637273,23.9507794 132.520114,21.1130062 130.286455,18.8334186 C128.054773,16.5525113 125.305045,15.4117278 122.040568,15.4117278 Z M137.112,1.20108866 L137.112,41.8648412 L133.394068,41.8648412 L133.394068,36.8220371 C131.814886,38.7459959 130.040614,40.1935835 128.074545,41.1634804 C126.107818,42.1346969 123.957864,42.6196454 121.623364,42.6196454 C117.475045,42.6196454 113.932432,41.1139959 110.996841,38.1033567 C108.060591,35.0920577 106.592795,31.4288825 106.592795,27.1144907 C106.592795,22.8898309 108.073773,19.2768 111.037045,16.2747381 C114.000318,13.2726763 117.564682,11.7709856 121.730795,11.7709856 C124.137136,11.7709856 126.314773,12.2836454 128.263045,13.3083052 C130.211977,14.3329649 131.922318,15.8696247 133.394068,17.9196041 L133.394068,1.20108866 L137.112,1.20108866 Z" id="Fill-7" fill="#808184" mask="url(#mask-4)"></path>
                        <path d="M165.475911,6.08184742 L165.475911,19.5376825 L172.184139,19.6188371 C174.89498,19.6188371 176.880161,19.372734 178.136389,18.8792082 C179.393934,18.3843629 180.381252,17.5866722 181.099661,16.4834969 C181.81807,15.3803216 182.177275,14.1465072 182.177275,12.7820536 C182.177275,11.455868 181.81807,10.239868 181.099661,9.13669278 C180.381252,8.03351753 179.434139,7.24836289 178.257661,6.78188866 C177.081184,6.31541443 175.15598,6.08184742 172.48007,6.08184742 L165.475911,6.08184742 Z M161.516093,2.19830103 L169.408707,2.19830103 C173.934684,2.19830103 176.986934,2.39623918 178.567434,2.79211546 C180.830752,3.34898144 182.680161,4.4950433 184.11632,6.23030103 C185.553139,7.96489897 186.271548,10.1441979 186.271548,12.7695175 C186.271548,15.4119918 185.570934,17.5912907 184.170366,19.3080742 C182.769139,21.0248577 180.83998,22.1794969 178.378934,22.7733113 C176.58357,23.2048165 173.225502,23.4199093 168.30473,23.4199093 L165.475911,23.4199093 L165.475911,41.8644454 L161.516093,41.8644454 L161.516093,2.19830103 Z" id="Fill-8" fill="#808184" mask="url(#mask-4)"></path>
                        <polygon id="Fill-9" fill="#808184" mask="url(#mask-4)" points="193.005545 41.8645773 196.776864 41.8645773 196.776864 1.20082474 193.005545 1.20082474"></polygon>
                        <path d="M218.743836,15.4117278 C216.645291,15.4117278 214.708223,15.9283464 212.931973,16.9602639 C211.156382,17.993501 209.743291,19.443068 208.694018,21.3102845 C207.644745,23.1781608 207.120768,25.1529237 207.120768,27.2358928 C207.120768,29.3010474 207.6487,31.2764701 208.7072,33.161501 C209.766359,35.0471918 211.187359,36.515233 212.972836,37.5662845 C214.756995,38.6166763 216.670995,39.1412124 218.716814,39.1412124 C220.780427,39.1412124 222.734632,38.6199753 224.582723,37.5801402 C226.430155,36.5370062 227.849836,35.1283464 228.8477,33.3502021 C229.841609,31.5727175 230.339882,29.5709031 230.339882,27.344099 C230.339882,23.9507794 229.223382,21.1130062 226.990382,18.8334186 C224.758041,16.5525113 222.006995,15.4117278 218.743836,15.4117278 Z M233.815268,12.5264495 L233.815268,41.8648412 L230.097995,41.8648412 L230.097995,36.8220371 C228.516836,38.7459959 226.744541,40.1935835 224.777155,41.1634804 C222.811745,42.1346969 220.660473,42.6196454 218.326632,42.6196454 C214.177655,42.6196454 210.635041,41.1139959 207.700109,38.1033567 C204.763859,35.0920577 203.295405,31.4288825 203.295405,27.1144907 C203.295405,22.8898309 204.777041,19.2768 207.740314,16.2747381 C210.703586,13.2726763 214.26795,11.7709856 218.433405,11.7709856 C220.841064,11.7709856 223.017382,12.2836454 224.966314,13.3083052 C226.913927,14.3329649 228.624927,15.8696247 230.097995,17.9196041 L230.097995,12.5264495 L233.815268,12.5264495 Z" id="Fill-10" fill="#808184" mask="url(#mask-4)"></path>
                        <polygon id="Fill-11" fill="#808184" mask="url(#mask-4)" points="245.586368 1.63206598 249.358345 1.63206598 249.358345 12.5265814 255.337618 12.5265814 255.337618 15.7892619 249.358345 15.7892619 249.358345 41.8649732 245.586368 41.8649732 245.586368 15.7892619 240.440845 15.7892619 240.440845 12.5265814 245.586368 12.5265814"></polygon>
                        <path d="M285.668586,24.2294103 C285.165041,22.2157196 284.432791,20.6071423 283.469859,19.4030186 C282.508245,18.1982351 281.2362,17.2276784 279.653064,16.4906887 C278.071245,15.7530392 276.409018,15.3848742 274.665064,15.3848742 C271.786814,15.3848742 269.315223,16.3105649 267.247655,18.1626062 C265.737677,19.5105649 264.594155,21.532833 263.822359,24.2294103 L285.668586,24.2294103 Z M285.668586,32.1304412 L288.846723,33.8023588 C287.804041,35.8516784 286.599223,37.5051216 285.233586,38.7633485 C283.86795,40.0222351 282.332268,40.9795959 280.623905,41.6354309 C278.916859,42.2919258 276.983086,42.6198433 274.825882,42.6198433 C270.044836,42.6198433 266.307791,41.0515134 263.610791,37.9141938 C260.913791,34.7768742 259.56595,31.2311423 259.56595,27.2763381 C259.56595,23.5557608 260.708155,20.2383175 262.990586,17.3259876 C265.883995,13.6232247 269.757473,11.7711835 274.611018,11.7711835 C279.608245,11.7711835 283.597064,13.6674309 286.581427,17.4612454 C288.701723,20.1400082 289.779995,23.4831835 289.816245,27.4920907 L263.4447,27.4920907 C263.5172,30.8999258 264.6047,33.6934928 266.707859,35.8727918 C268.812995,38.0514309 271.409155,39.1414103 274.502927,39.1414103 C275.99445,39.1414103 277.446427,38.8814515 278.857541,38.3628536 C280.269973,37.8435959 281.469518,37.1541113 282.458155,36.2944 C283.448109,35.4346887 284.517814,34.0471423 285.668586,32.1304412 Z" id="Fill-12" fill="#808184" mask="url(#mask-4)"></path>
                        <polygon id="Fill-13" fill="#7CB545" mask="url(#mask-4)" points="9.0886 62.8227959 0.329281818 62.8227959 0.329281818 49.0740124 9.0886 49.0740124 9.0886 49.9587959 1.44841818 49.9587959 1.44841818 55.1579711 8.66150909 55.1579711 8.66150909 56.0420948 1.44841818 56.0420948 1.44841818 61.9380124 9.0886 61.9380124"></polygon>
                        <path d="M0.659090909,62.492899 L8.75931818,62.492899 L8.75931818,62.2679093 L1.11847727,62.2679093 L1.11847727,55.7121979 L8.33222727,55.7121979 L8.33222727,55.487868 L1.11847727,55.487868 L1.11847727,49.628899 L8.75931818,49.628899 L8.75931818,49.4039093 L0.659090909,49.4039093 L0.659090909,62.492899 Z M9.41840909,63.1526928 L0,63.1526928 L0,48.7441155 L9.41840909,48.7441155 L9.41840909,50.2886928 L1.77756818,50.2886928 L1.77756818,54.8280742 L8.99131818,54.8280742 L8.99131818,56.3719918 L1.77756818,56.3719918 L1.77756818,61.6081155 L9.41840909,61.6081155 L9.41840909,63.1526928 Z" id="Fill-14" fill="#77B446" mask="url(#mask-4)"></path>
                        <path d="M28.0216455,49.0740784 L29.2383273,49.0740784 L23.2419182,62.8228619 L22.2546,62.8228619 L16.2799409,49.0740784 L17.4755318,49.0740784 L21.5098273,58.4312742 C22.1234409,59.8405938 22.5366909,60.9008825 22.7482591,61.6088412 C22.8945773,61.1384082 23.1839182,60.4086763 23.6143045,59.4183258 L28.0216455,49.0740784 Z" id="Fill-15" fill="#7CB545" mask="url(#mask-4)"></path>
                        <path d="M22.4709136,62.492899 L22.6673227,62.492899 L22.4320273,61.7031258 C22.22705,61.0156206 21.8151182,59.9586309 21.2074364,58.5625072 L17.2588227,49.4039093 L16.7829591,49.4039093 L22.4709136,62.492899 Z M22.8175955,62.492899 L23.0265273,62.492899 L28.7349136,49.4039093 L28.2392773,49.4039093 L23.9176182,59.5475794 C23.4905273,60.5286928 23.2031636,61.254466 23.0627773,61.7070845 L22.8175955,62.492899 Z M23.4575727,63.1526928 L22.0392091,63.1526928 L15.7771864,48.7441155 L17.6918455,48.7441155 L21.8124818,58.3005691 C22.2151864,59.2262598 22.5282545,59.9916206 22.7582773,60.6124866 C22.9045955,60.2403629 23.0884818,59.8002804 23.3125727,59.2869608 L27.8036182,48.7441155 L29.7413455,48.7441155 L23.4575727,63.1526928 Z" id="Fill-16" fill="#77B446" mask="url(#mask-4)"></path>
                        <polygon id="Fill-17" fill="#7CB545" mask="url(#mask-4)" points="46.0990591 62.8227959 37.3397409 62.8227959 37.3397409 49.0740124 46.0990591 49.0740124 46.0990591 49.9587959 38.4575591 49.9587959 38.4575591 55.1579711 45.6713091 55.1579711 45.6713091 56.0420948 38.4575591 56.0420948 38.4575591 61.9380124 46.0990591 61.9380124"></polygon>
                        <path d="M37.6692205,62.492899 L45.7694477,62.492899 L45.7694477,62.2679093 L38.1279477,62.2679093 L38.1279477,55.7121979 L45.3416977,55.7121979 L45.3416977,55.487868 L38.1279477,55.487868 L38.1279477,49.628899 L45.7694477,49.628899 L45.7694477,49.4039093 L37.6692205,49.4039093 L37.6692205,62.492899 Z M46.4285386,63.1526928 L37.0101295,63.1526928 L37.0101295,48.7441155 L46.4285386,48.7441155 L46.4285386,50.2886928 L38.7870386,50.2886928 L38.7870386,54.8280742 L46.0007886,54.8280742 L46.0007886,56.3719918 L38.7870386,56.3719918 L38.7870386,61.6081155 L46.4285386,61.6081155 L46.4285386,63.1526928 Z" id="Fill-18" fill="#77B446" mask="url(#mask-4)"></path>
                        <path d="M67.2134318,62.8227959 L66.0844091,62.8227959 L56.5902045,50.6166103 L56.5025455,50.6166103 C56.5902045,52.0707959 56.6343636,53.1673732 56.6343636,53.9076619 L56.6343636,62.8227959 L55.5593864,62.8227959 L55.5593864,49.0740124 L56.6778636,49.0740124 L66.1602045,61.2610639 L66.2261136,61.2610639 C66.1602045,60.1328165 66.1279091,59.0613113 66.1279091,58.0452289 L66.1279091,49.0740124 L67.2134318,49.0740124 L67.2134318,62.8227959 Z" id="Fill-19" fill="#7CB545" mask="url(#mask-4)"></path>
                        <path d="M66.2450955,62.492899 L66.8837545,62.492899 L66.8837545,49.4039093 L66.4573227,49.4039093 L66.4573227,58.0452289 C66.4573227,59.0553732 66.4902773,60.1308371 66.5555273,61.2419299 L66.5759591,61.5909608 L65.9992545,61.5909608 L56.5169136,49.4039093 L55.8888,49.4039093 L55.8888,62.492899 L56.3046864,62.492899 L56.3046864,53.9076619 C56.3046864,53.1799093 56.2605273,52.0793732 56.1735273,50.6364041 L56.1524364,50.2867134 L56.7508909,50.2867134 L66.2450955,62.492899 Z M67.5428455,63.1526928 L65.9234591,63.1526928 L56.8840273,51.5317443 C56.9367545,52.5372701 56.9637773,53.334301 56.9637773,53.9076619 L56.9637773,63.1526928 L55.2297091,63.1526928 L55.2297091,48.7441155 L56.8392091,48.7441155 L65.8489818,60.3241567 C65.8153682,59.5376825 65.7982318,58.7749608 65.7982318,58.0452289 L65.7982318,48.7441155 L67.5428455,48.7441155 L67.5428455,63.1526928 Z" id="Fill-20" fill="#77B446" mask="url(#mask-4)"></path>
                        <polygon id="Fill-21" fill="#7CB545" mask="url(#mask-4)" points="81.760425 62.8227959 80.6314023 62.8227959 80.6314023 49.9772701 75.423925 49.9772701 75.423925 49.0740124 86.9679023 49.0740124 86.9679023 49.9772701 81.760425 49.9772701"></polygon>
                        <path d="M80.9606841,62.492899 L81.4306159,62.492899 L81.4306159,49.6473732 L86.6387523,49.6473732 L86.6387523,49.4039093 L75.7538659,49.4039093 L75.7538659,49.6473732 L80.9606841,49.6473732 L80.9606841,62.492899 Z M82.0897068,63.1526928 L80.3015932,63.1526928 L80.3015932,50.307167 L75.094775,50.307167 L75.094775,48.7441155 L87.2978432,48.7441155 L87.2978432,50.307167 L82.0897068,50.307167 L82.0897068,63.1526928 Z" id="Fill-22" fill="#77B446" mask="url(#mask-4)"></path>
                        <path d="M104.025636,59.2770639 C104.025636,60.4237856 103.534614,61.3323216 102.55125,62.0039918 C101.567886,62.6743423 100.261568,63.0101773 98.6316364,63.0101773 C96.6734773,63.0101773 95.1714091,62.8254351 94.1260909,62.4552907 L94.1260909,61.4966103 C95.2808182,61.9162392 96.7532273,62.1260536 98.5439773,62.1260536 C99.8595227,62.1260536 100.903523,61.8680742 101.674,61.3507959 C102.445136,60.8335175 102.830705,60.1552495 102.830705,59.3146722 C102.830705,58.7947546 102.702841,58.3625897 102.446455,58.0221361 C102.191386,57.6803629 101.774841,57.3676206 101.196818,57.0865485 C100.620114,56.8041567 99.7725227,56.499332 98.6540455,56.1747134 C97.0168636,55.6910845 95.8852045,55.1691876 95.2610455,54.6083629 C94.6355682,54.0475381 94.3238182,53.2999918 94.3238182,52.3657237 C94.3238182,51.3377649 94.7930909,50.4985072 95.7322955,49.8499299 C96.6715,49.2013526 97.8789545,48.8760742 99.3559773,48.8760742 C100.860682,48.8760742 102.27575,49.1215175 103.598545,49.6104247 L103.192545,50.4378062 C101.861841,49.9614351 100.590455,49.7232495 99.3777273,49.7232495 C98.1933409,49.7232495 97.2508409,49.9587959 96.5489091,50.4279093 C95.8476364,50.8983423 95.497,51.5383423 95.497,52.3465897 C95.497,52.8546309 95.6044318,53.2709608 95.8206136,53.596899 C96.0354773,53.9241567 96.38875,54.2164454 96.8777955,54.4770639 C97.3675,54.7363629 98.2085,55.0491052 99.3994773,55.4126515 C100.649114,55.7821361 101.588977,56.1410639 102.216432,56.4887753 C102.845205,56.8371464 103.303932,57.2317031 103.592614,57.6737649 C103.881295,58.115167 104.025636,58.6496 104.025636,59.2770639" id="Fill-23" fill="#7CB545" mask="url(#mask-4)"></path>
                        <path d="M94.4556364,62.2171711 C95.4515227,62.5246351 96.8547273,62.6803464 98.6316364,62.6803464 C100.186432,62.6803464 101.442659,62.3610062 102.365386,61.7315629 C103.261091,61.119934 103.696091,60.3169649 103.696091,59.2771299 C103.696091,58.7176247 103.568886,58.2392742 103.317114,57.8552742 C103.059409,57.4600577 102.635614,57.0978309 102.056932,56.7778309 C101.453864,56.4433155 100.5285,56.0903258 99.3065455,55.7287588 C98.1010682,55.3605938 97.2330455,55.0379546 96.7235682,54.7687588 C96.1850909,54.4817485 95.7883182,54.1485526 95.5451136,53.7777485 C95.2946591,53.4010062 95.1674545,52.9186969 95.1674545,52.3466557 C95.1674545,51.4249237 95.5708182,50.6866144 96.3656818,50.1541608 C97.121,49.6487588 98.1346818,49.3927588 99.3777273,49.3927588 C100.537068,49.3927588 101.762318,49.6078515 103.025136,50.0301196 L103.1385,49.7991918 C101.953455,49.4052948 100.683386,49.2060371 99.3559773,49.2060371 C97.95475,49.2060371 96.7987045,49.5141608 95.9201364,50.1211711 C95.0672727,50.710367 94.6533636,51.4440577 94.6533636,52.3657897 C94.6533636,53.2103258 94.9235909,53.8635216 95.4805227,54.3629856 C96.0651364,54.8881814 97.1638409,55.3909443 98.7469773,55.8580784 C99.8720455,56.1846763 100.745341,56.4980784 101.341818,56.7897072 C101.964,57.0925526 102.424045,57.4415835 102.71075,57.8242639 C103.009318,58.2214598 103.16025,58.7229031 103.16025,59.3147381 C103.16025,60.2681402 102.721955,61.0453773 101.857227,61.6246763 C101.035341,62.1762639 99.9208182,62.4560165 98.5439773,62.4560165 C96.9423864,62.4560165 95.5701591,62.2871093 94.4556364,61.9532536 L94.4556364,62.2171711 Z M98.6316364,63.3401402 C96.6451364,63.3401402 95.0916591,63.1468206 94.0160227,62.7667794 L93.7965455,62.6889237 L93.7965455,61.0262433 L94.2381364,61.1865732 C95.3526591,61.5916866 96.8013409,61.7962227 98.5439773,61.7962227 C99.7876818,61.7962227 100.778955,61.5540784 101.490773,61.0763876 C102.170955,60.6204701 102.501159,60.0444701 102.501159,59.3147381 C102.501159,58.8693773 102.394386,58.5012124 102.183477,58.2201402 C101.960045,57.9212536 101.57975,57.6401814 101.053136,57.3828619 C100.489614,57.1077278 99.6519091,56.8081814 98.5617727,56.4914804 C96.8593409,55.9893773 95.7079091,55.4529649 95.0409091,54.8538722 C94.3462273,54.2310268 93.9942727,53.3937485 93.9942727,52.3657897 C93.9942727,51.2276454 94.5162727,50.2894186 95.5451136,49.5788206 C96.5363864,48.8939546 97.8189773,48.5462433 99.3559773,48.5462433 C100.891,48.5462433 102.356818,48.8002639 103.711909,49.3010474 L104.054636,49.427068 L103.358636,50.8476041 L103.081818,50.7479753 C101.792636,50.2867794 100.546295,50.0525526 99.3777273,50.0525526 C98.2671591,50.0525526 97.3767273,50.2716041 96.7321364,50.7024495 C96.1231364,51.1108619 95.8265455,51.6485938 95.8265455,52.3466557 C95.8265455,52.7867381 95.9168409,53.145666 96.0947955,53.4142021 C96.2780227,53.6926351 96.5930682,53.951934 97.0326818,54.185501 C97.5039318,54.4355629 98.3330682,54.742367 99.4957045,55.0966763 C100.761159,55.4707794 101.731341,55.8429031 102.375932,56.2005113 C103.049523,56.5732948 103.55175,57.008099 103.868114,57.4937072 C104.191068,57.9865732 104.355182,58.5869856 104.355182,59.2771299 C104.355182,60.5340371 103.810773,61.5435216 102.737114,62.2765526 C101.702341,62.982532 100.320886,63.3401402 98.6316364,63.3401402 Z" id="Fill-24" fill="#77B446" mask="url(#mask-4)"></path>
                        <path d="M120.897507,51.7641897 C120.897507,52.2583753 121.043825,52.7162722 121.335143,53.135901 C121.62712,53.5568495 122.183393,54.1018392 123.001984,54.7728495 C124.163961,54.2397361 124.971348,53.7415918 125.424802,53.2777567 C125.877598,52.8139216 126.104325,52.2841072 126.104325,51.6889732 C126.104325,51.0991175 125.877598,50.6214268 125.424802,50.2545814 C124.971348,49.8877361 124.357734,49.7043134 123.582643,49.7043134 C122.750211,49.7043134 122.093757,49.8857567 121.615257,50.2493031 C121.136757,50.6135093 120.897507,51.1182515 120.897507,51.7641897 M123.144348,62.1645196 C124.079598,62.1645196 124.936416,62.0272825 125.715461,61.7547876 C126.494507,61.4822928 127.259052,61.0230763 128.011734,60.3771381 L122.716598,55.8166433 C121.722689,56.2679423 121.004939,56.6519423 120.562689,56.9679835 C120.120439,57.2846845 119.799461,57.6284371 119.59778,57.9985814 C119.397416,58.3687258 119.295916,58.8008907 119.295916,59.2957361 C119.295916,60.1923959 119.636666,60.8950763 120.31553,61.4024577 C120.995711,61.9098392 121.93887,62.1645196 123.144348,62.1645196 M118.156348,59.3340041 C118.156348,58.4683546 118.425257,57.7313649 118.961757,57.1236948 C119.499575,56.5147052 120.502052,55.8733856 121.971166,55.1957773 L121.14928,54.4251381 C120.666825,53.9791175 120.30828,53.5436536 120.074961,53.1180866 C119.840325,52.6912 119.724325,52.246499 119.724325,51.7826639 C119.724325,50.8860041 120.073643,50.1740866 120.770961,49.6482309 C121.468939,49.1217155 122.406166,48.8577979 123.582643,48.8577979 C124.71562,48.8577979 125.612643,49.1111588 126.27437,49.6198598 C126.936098,50.127901 127.266961,50.8292619 127.266961,51.7259216 C127.266961,52.3837361 127.010575,52.9874474 126.49978,53.5363959 C125.987007,54.0853443 125.062961,54.694334 123.725666,55.3653443 L128.680052,59.6625814 C129.126916,59.2112825 129.506552,58.7190763 129.820939,58.1859629 C130.134666,57.6535093 130.408848,57.0234062 130.643484,56.2963134 L131.694734,56.2963134 C131.235348,57.8382515 130.47212,59.1736742 129.405052,60.3019216 L132.32087,62.8229938 L130.839893,62.8229938 L128.724211,60.969633 C128.051939,61.5344165 127.452166,61.9461278 126.925552,62.2067464 C126.400257,62.4667052 125.82487,62.6659629 125.200052,62.8025402 C124.575234,62.9417567 123.864075,63.0103753 123.067893,63.0103753 C121.54078,63.0103753 120.339916,62.6877361 119.46662,62.0417979 C118.593325,61.3958598 118.156348,60.4932619 118.156348,59.3340041" id="Fill-25" fill="#7CB545" mask="url(#mask-4)"></path>
                        <path d="M123.582775,50.0341443 C122.827457,50.0341443 122.232298,50.195134 121.814434,50.5124948 C121.41898,50.8133608 121.227184,51.222433 121.227184,51.7641237 C121.227184,52.1936495 121.351093,52.5809485 121.605502,52.9477938 C121.859252,53.3126598 122.345661,53.7956289 123.051548,54.3861443 C124.07182,53.9051546 124.79023,53.4551753 125.18898,53.0467629 C125.583116,52.6436289 125.774911,52.1989278 125.774911,51.6889072 C125.774911,51.2 125.592343,50.8146804 125.21732,50.5111753 C124.82582,50.1944742 124.276139,50.0341443 123.582775,50.0341443 Z M122.952684,55.1587629 L122.793184,55.0274639 C121.941639,54.3300619 121.376139,53.7725361 121.064389,53.3238763 C120.734843,52.8508041 120.568093,52.3256082 120.568093,51.7641237 C120.568093,51.0126186 120.85282,50.4148454 121.415684,49.9866392 C121.950866,49.580866 122.68048,49.3743505 123.582775,49.3743505 C124.430366,49.3743505 125.119775,49.5841649 125.63123,49.9978557 C126.163775,50.428701 126.434002,50.9974433 126.434002,51.6889072 C126.434002,52.3704742 126.173661,52.9827629 125.66023,53.5086186 C125.17382,54.0061031 124.349298,54.5174433 123.139866,55.0723299 L122.952684,55.1587629 Z M122.662025,56.2045361 C121.790707,56.6070103 121.15007,56.9534021 120.753957,57.2364536 C120.355866,57.5221443 120.063889,57.8315876 119.887252,58.156866 C119.713911,58.4762062 119.625593,58.8595464 119.625593,59.2956701 C119.625593,60.0894021 119.916252,60.6917938 120.51273,61.1384742 C121.132275,61.5996701 122.017434,61.8345567 123.14448,61.8345567 C124.03557,61.8345567 124.864707,61.7032577 125.606843,61.443299 C126.24023,61.2216082 126.875593,60.8620206 127.499752,60.371134 L122.662025,56.2045361 Z M123.14448,62.4943505 C121.873093,62.4943505 120.854798,62.2159175 120.118593,61.6676289 C119.354048,61.0955876 118.966502,60.2978969 118.966502,59.2956701 C118.966502,58.7480412 119.081184,58.259134 119.30857,57.8408247 C119.532661,57.4277938 119.890548,57.0437938 120.371025,56.7000412 C120.836343,56.3675052 121.558707,55.9802062 122.580298,55.5163711 L122.772093,55.4292784 L128.518048,60.377732 L128.22607,60.6277938 C127.444389,61.2981443 126.636343,61.782433 125.823684,62.0654845 C125.011684,62.3498557 124.110048,62.4943505 123.14448,62.4943505 Z M123.582775,49.1876289 C122.486048,49.1876289 121.606161,49.4310928 120.96882,49.9114227 C120.35323,50.3765773 120.054002,50.9882062 120.054002,51.7825979 C120.054002,52.1943093 120.154843,52.5789691 120.363775,52.9590103 C120.578639,53.350268 120.91807,53.7619794 121.372843,54.1829278 L122.553934,55.2907216 L122.109048,55.4952577 C120.688048,56.1510928 119.711934,56.7719588 119.209048,57.3420206 C118.72198,57.8929485 118.486025,58.5441649 118.486025,59.3339381 C118.486025,60.3915876 118.870934,61.1905979 119.662502,61.7764948 C120.473843,62.3762474 121.619343,62.6804124 123.068025,62.6804124 C123.84048,62.6804124 124.533843,62.6131134 125.129002,62.4804948 C125.722184,62.3511753 126.277139,62.1591753 126.780025,61.9110928 C127.282911,61.6616907 127.866207,61.2598763 128.512116,60.716866 L128.728298,60.5354227 L130.963934,62.4930309 L131.435184,62.4930309 L128.928002,60.326268 L129.165275,60.0755464 C130.092616,59.0950928 130.790593,57.9364948 131.24273,56.6261443 L130.880889,56.6261443 C130.656139,57.2793402 130.395798,57.859299 130.10448,58.3534845 C129.776911,58.9090309 129.376843,59.4276289 128.914161,59.8941031 L128.69732,60.1131546 L123.13723,55.2913814 L123.578161,55.0703505 C124.873275,54.4204536 125.77557,53.8286186 126.258684,53.3106804 C126.714775,52.8204536 126.936889,52.3025155 126.936889,51.7258557 C126.936889,50.9308041 126.654798,50.3270928 126.07348,49.881732 C125.474366,49.4205361 124.636002,49.1876289 123.582775,49.1876289 Z M123.068025,63.3402062 C121.475661,63.3402062 120.198343,62.9931546 119.271002,62.3076289 C118.312684,61.5976907 117.826934,60.5981031 117.826934,59.3339381 C117.826934,58.3897732 118.125502,57.5729485 118.715389,56.9052371 C119.230139,56.3213196 120.108707,55.7308041 121.391957,55.1053196 L120.924002,54.6665567 C120.41848,54.1987629 120.034889,53.7309691 119.785752,53.2763711 C119.52607,52.8039588 119.394911,52.3011959 119.394911,51.7825979 C119.394911,50.7810309 119.791025,49.9741031 120.572707,49.3849072 C121.326707,48.8155052 122.33973,48.5278351 123.582775,48.5278351 C124.784298,48.5278351 125.757775,48.8075876 126.474866,49.3585155 C127.21898,49.9292371 127.59598,50.726268 127.59598,51.7258557 C127.59598,52.4668041 127.307957,53.1510103 126.74048,53.7606598 C126.255389,54.2812371 125.457889,54.8315052 124.310411,55.4358763 L128.658434,59.2065979 C128.993252,58.8390928 129.288525,58.4399175 129.537002,58.0189691 C129.836889,57.5096082 130.10382,56.8953402 130.32923,56.195299 L130.403048,55.9663505 L132.137116,55.9663505 L132.01057,56.3905979 C131.572275,57.8612784 130.855184,59.1670103 129.877093,60.2748041 L133.206161,63.1528247 L130.716116,63.1528247 L128.717752,61.4023918 C128.116002,61.8893196 127.563684,62.2588041 127.071343,62.502268 C126.521002,62.7747629 125.915298,62.9839175 125.270707,63.1251134 C124.63007,63.2682887 123.888593,63.3402062 123.068025,63.3402062 Z" id="Fill-26" fill="#77B446" mask="url(#mask-4)"></path>
                        <path d="M153.587823,49.7422515 C151.578255,49.7422515 149.996436,50.2938392 148.841709,51.3970144 C147.685664,52.5008495 147.108959,54.0111175 147.108959,55.9297979 C147.108959,57.8913649 147.653368,59.4148289 148.742186,60.4995299 C149.831664,61.5835711 151.387777,62.1265814 153.412505,62.1265814 C154.756391,62.1265814 155.992186,61.9794474 157.117255,61.6845196 L157.117255,62.5316948 C156.058095,62.8497155 154.734641,63.0100454 153.148868,63.0100454 C150.898732,63.0100454 149.125777,62.3865402 147.832641,61.1382103 C146.538845,59.8918598 145.892277,58.1486845 145.892277,55.9113237 C145.892277,54.511901 146.201391,53.2807258 146.8183,52.2151588 C147.435868,51.1495918 148.324323,50.3261691 149.482345,49.7468701 C150.641027,49.1669113 151.98755,48.8766021 153.521914,48.8766021 C155.085936,48.8766021 156.485186,49.1273237 157.720323,49.628767 L157.272141,50.4944165 C156.101595,49.9923134 154.873709,49.7422515 153.587823,49.7422515" id="Fill-27" fill="#7CB545" mask="url(#mask-4)"></path>
                        <path d="M153.522177,49.2061691 C152.047791,49.2061691 150.737518,49.4872412 149.630245,50.0421278 C148.536155,50.5890969 147.685927,51.3755711 147.103291,52.3810969 C146.518677,53.3912412 146.222086,54.5795299 146.222086,55.9109938 C146.222086,58.0460866 146.840314,59.7246021 148.06095,60.9010144 C149.284882,62.0820454 150.996541,62.6804784 153.149132,62.6804784 C154.577382,62.6804784 155.799995,62.5465402 156.787973,62.2819629 L156.787973,62.1044784 C155.751882,62.3373856 154.618905,62.4561485 153.412768,62.4561485 C151.308291,62.4561485 149.658586,61.8761897 148.51045,60.7334268 C147.361655,59.5893443 146.779677,57.9735093 146.779677,55.929468 C146.779677,53.9256742 147.396586,52.3210557 148.614586,51.158499 C149.827314,49.999901 151.500086,49.4120247 153.588086,49.4120247 C154.8107,49.4120247 155.996405,49.6350351 157.118177,50.0744577 L157.257245,49.8052619 C156.147995,49.408066 154.893745,49.2061691 153.522177,49.2061691 M153.149132,63.3402722 C150.819905,63.3402722 148.954677,62.6791588 147.6042,61.376066 C146.249768,60.0709938 145.562995,58.2328082 145.562995,55.9109938 C145.562995,54.4614268 145.889245,53.1622928 146.533177,52.0498804 C147.181723,50.9308701 148.124223,50.0573031 149.334973,49.4516124 C150.535836,48.8512 151.943655,48.5463753 153.522177,48.5463753 C155.120473,48.5463753 156.574427,48.8076536 157.843836,49.3236124 L158.178655,49.4595299 L157.423995,50.918334 L157.141905,50.7975918 C156.020132,50.3166021 154.824541,50.0718186 153.588086,50.0718186 C151.675405,50.0718186 150.155541,50.5976742 149.0687,51.6355299 C147.987132,52.668767 147.438768,54.1130557 147.438768,55.929468 C147.438768,57.792066 147.955495,59.2502103 148.975109,60.265633 C149.994723,61.2817155 151.488223,61.7963546 153.412768,61.7963546 C154.724359,61.7963546 155.943018,61.6512 157.033814,61.3655093 L157.447064,61.2573031 L157.447064,62.7768082 L157.212427,62.8474062 C156.124268,63.1746639 154.757314,63.3402722 153.149132,63.3402722" id="Fill-28" fill="#77B446" mask="url(#mask-4)"></path>
                        <path d="M168.135475,57.1050227 L173.868907,57.1050227 L171.687316,52.1486515 C171.504089,51.760033 171.28527,51.2216412 171.029543,50.5314969 C170.831157,51.1332289 170.616293,51.6788784 170.382975,52.1684454 L168.135475,57.1050227 Z M174.241293,57.9700124 L167.730134,57.9700124 L165.493839,62.8227959 L164.254089,62.8227959 L170.701316,49.0179299 L171.413134,49.0179299 L177.727225,62.8227959 L176.467043,62.8227959 L174.241293,57.9700124 Z" id="Fill-29" fill="#7CB545" mask="url(#mask-4)"></path>
                        <path d="M168.647786,56.7751258 L173.363582,56.7751258 L171.384991,52.2812701 C171.281514,52.0615588 171.166832,51.7950021 171.039627,51.4776412 C170.924286,51.7719093 170.803673,52.0503423 170.680423,52.3096412 L168.647786,56.7751258 Z M174.373968,57.4349196 L167.6229,57.4349196 L170.083286,52.031868 C170.309355,51.5554969 170.522241,51.0171052 170.716673,50.4285691 L171.010627,49.5345485 L171.338195,50.4166928 C171.590627,51.0976 171.808786,51.6326928 171.984764,52.0081155 L174.373968,57.4349196 Z M176.67815,62.492899 L177.213332,62.492899 L171.201105,49.3478268 L170.911105,49.3478268 L164.772332,62.492899 L165.283127,62.492899 L167.518764,57.6401155 L174.4524,57.6401155 L176.67815,62.492899 Z M178.240855,63.1526928 L176.255673,63.1526928 L174.029923,58.2999093 L167.941241,58.2999093 L165.704945,63.1526928 L163.736241,63.1526928 L170.491264,48.688033 L171.6249,48.688033 L178.240855,63.1526928 Z" id="Fill-30" fill="#77B446" mask="url(#mask-4)"></path>
                        <polygon id="Fill-31" fill="#7CB545" mask="url(#mask-4)" points="190.005166 62.8227959 188.876143 62.8227959 188.876143 49.9772701 183.669325 49.9772701 183.669325 49.0740124 195.213302 49.0740124 195.213302 49.9772701 190.005166 49.9772701"></polygon>
                        <path d="M189.205755,62.492899 L189.675686,62.492899 L189.675686,49.6473732 L194.883823,49.6473732 L194.883823,49.4039093 L183.998936,49.4039093 L183.998936,49.6473732 L189.205755,49.6473732 L189.205755,62.492899 Z M190.334777,63.1526928 L188.546664,63.1526928 L188.546664,50.307167 L183.339845,50.307167 L183.339845,48.7441155 L195.542914,48.7441155 L195.542914,50.307167 L190.334777,50.307167 L190.334777,63.1526928 Z" id="Fill-32" fill="#77B446" mask="url(#mask-4)"></path>
                        <polygon id="Fill-33" fill="#7CB545" mask="url(#mask-4)" points="212.183839 62.8227959 203.423861 62.8227959 203.423861 49.0740124 212.183839 49.0740124 212.183839 49.9587959 204.542339 49.9587959 204.542339 55.1579711 211.756748 55.1579711 211.756748 56.0420948 204.542339 56.0420948 204.542339 61.9380124 212.183839 61.9380124"></polygon>
                        <path d="M203.753407,62.492899 L211.854293,62.492899 L211.854293,62.2679093 L204.212793,62.2679093 L204.212793,55.7121979 L211.427202,55.7121979 L211.427202,55.487868 L204.212793,55.487868 L204.212793,49.628899 L211.854293,49.628899 L211.854293,49.4039093 L203.753407,49.4039093 L203.753407,62.492899 Z M212.513384,63.1526928 L203.094316,63.1526928 L203.094316,48.7441155 L212.513384,48.7441155 L212.513384,50.2886928 L204.871884,50.2886928 L204.871884,54.8280742 L212.086293,54.8280742 L212.086293,56.3719918 L204.871884,56.3719918 L204.871884,61.6081155 L212.513384,61.6081155 L212.513384,63.1526928 Z" id="Fill-34" fill="#77B446" mask="url(#mask-4)"></path>
                        <path d="M222.762775,56.0044866 L225.820298,56.0044866 C227.172752,56.0044866 228.222025,55.7451876 228.967457,55.2285691 C229.712889,54.7119505 230.085934,53.9485691 230.085934,52.9390845 C230.085934,51.8926515 229.71948,51.1299299 228.989207,50.6548784 C228.258275,50.1771876 227.067298,49.9396619 225.415616,49.9396619 L222.762775,49.9396619 L222.762775,56.0044866 Z M222.762775,56.831868 L222.762775,62.8227959 L221.644298,62.8227959 L221.644298,49.0740124 L225.459775,49.0740124 C227.446934,49.0740124 228.916048,49.3893938 229.865798,50.0194969 C230.816207,50.6496 231.290752,51.5970639 231.290752,52.863868 C231.290752,53.7856 231.008002,54.5621773 230.441184,55.1955794 C229.875025,55.8283216 229.014911,56.2835794 227.858866,56.560033 L232.21282,62.8227959 L230.875525,62.8227959 L226.741707,56.831868 L222.762775,56.831868 Z" id="Fill-35" fill="#7CB545" mask="url(#mask-4)"></path>
                        <path d="M223.09232,55.6745897 L225.820298,55.6745897 C227.097616,55.6745897 228.093502,55.4337649 228.779616,54.9573938 C229.437389,54.5021361 229.756389,53.8416825 229.756389,52.9390845 C229.756389,52.0034969 229.447275,51.3456825 228.809934,50.931332 C228.137002,50.4919093 226.995457,50.2695588 225.415616,50.2695588 L223.09232,50.2695588 L223.09232,55.6745897 Z M225.820298,56.3343835 L222.43323,56.3343835 L222.43323,49.6097649 L225.415616,49.6097649 C227.149025,49.6097649 228.37757,49.8604866 229.169798,50.3784247 C229.996298,50.9168165 230.41548,51.7785072 230.41548,52.9390845 C230.41548,54.0587546 229.991684,54.9197856 229.155298,55.4997443 C228.35648,56.0533113 227.234048,56.3343835 225.820298,56.3343835 Z M231.048207,62.492899 L231.58207,62.492899 L227.31248,56.3508784 L227.782411,56.2387134 C228.865298,55.9800742 229.677298,55.5545072 230.196002,54.9752082 C230.711411,54.3992082 230.961207,53.7090639 230.961207,52.863868 C230.961207,51.7046103 230.544002,50.8646928 229.683889,50.2946309 C228.792798,49.7034557 227.371798,49.4039093 225.459775,49.4039093 L221.973843,49.4039093 L221.973843,62.492899 L222.43323,62.492899 L222.43323,56.5019711 L226.915048,56.5019711 L231.048207,62.492899 Z M232.84357,63.1526928 L230.702184,63.1526928 L226.568366,57.1617649 L223.09232,57.1617649 L223.09232,63.1526928 L221.314752,63.1526928 L221.314752,48.7441155 L225.459775,48.7441155 C227.503616,48.7441155 229.047207,49.0806103 230.048366,49.7443629 C231.091707,50.4364866 231.620298,51.4855588 231.620298,52.863868 C231.620298,53.8647753 231.30657,54.723167 230.686366,55.4152907 C230.157116,56.0084454 229.387957,56.4577649 228.397343,56.7566515 L232.84357,63.1526928 Z" id="Fill-36" fill="#77B446" mask="url(#mask-4)"></path>
                        <polygon id="Fill-37" fill="#7CB545" mask="url(#mask-4)" points="240.817977 62.8229278 241.936455 62.8229278 241.936455 49.0741443 240.817977 49.0741443"></polygon>
                        <path d="M241.147523,62.4930309 L241.606909,62.4930309 L241.606909,49.4040412 L241.147523,49.4040412 L241.147523,62.4930309 Z M240.489091,63.1528247 L242.266659,63.1528247 L242.266659,48.7442474 L240.489091,48.7442474 L240.489091,63.1528247 Z" id="Fill-38" fill="#77B446" mask="url(#mask-4)"></path>
                        <path d="M263.95978,62.8227959 L262.830757,62.8227959 L253.337211,50.6166103 L253.249552,50.6166103 C253.337211,52.0707959 253.380711,53.1673732 253.380711,53.9076619 L253.380711,62.8227959 L252.305734,62.8227959 L252.305734,49.0740124 L253.42487,49.0740124 L262.90787,61.2610639 L262.97378,61.2610639 C262.90787,60.1328165 262.874916,59.0613113 262.874916,58.0452289 L262.874916,49.0740124 L263.95978,49.0740124 L263.95978,62.8227959 Z" id="Fill-39" fill="#7CB545" mask="url(#mask-4)"></path>
                        <path d="M262.991773,62.492899 L263.630432,62.492899 L263.630432,49.4039093 L263.204,49.4039093 L263.204,58.0452289 C263.204,59.0428371 263.237614,60.1176412 263.302864,61.2419299 L263.323295,61.5909608 L262.813159,61.5909608 L262.648386,61.4636206 L253.263591,49.4039093 L252.635477,49.4039093 L252.635477,62.492899 L253.051364,62.492899 L253.051364,53.9076619 C253.051364,53.1779299 253.007864,52.0773938 252.920864,50.6364041 L252.899114,50.2867134 L253.498227,50.2867134 L262.991773,62.492899 Z M264.289523,63.1526928 L262.670136,63.1526928 L253.631364,51.5317443 C253.684091,52.5359505 253.710455,53.3329814 253.710455,53.9076619 L253.710455,63.1526928 L251.976386,63.1526928 L251.976386,48.7441155 L253.585886,48.7441155 L262.596318,60.3234969 C262.562705,59.5310845 262.544909,58.7677031 262.544909,58.0452289 L262.544909,48.7441155 L264.289523,48.7441155 L264.289523,63.1526928 Z" id="Fill-40" fill="#77B446" mask="url(#mask-4)"></path>
                        <path d="M280.634055,55.8917278 L286.542805,55.8917278 L286.542805,62.1643876 C284.993941,62.7285113 283.251305,63.0102433 281.313577,63.0102433 C278.785305,63.0102433 276.846918,62.3972948 275.497759,61.1720577 C274.149918,59.9461608 273.475668,58.2115629 273.475668,55.9662845 C273.475668,54.5688412 273.809827,53.3290887 274.478145,52.2476866 C275.147782,51.1669443 276.105441,50.3309856 277.350464,49.7424495 C278.596145,49.1525938 280.027691,48.857666 281.643123,48.857666 C283.389055,48.857666 284.957032,49.1334598 286.345736,49.6857072 L285.896236,50.5500371 C284.507532,49.9984495 283.068077,49.7226557 281.577873,49.7226557 C279.465486,49.7226557 277.789418,50.2828206 276.550986,51.4018309 C275.312555,52.5208412 274.691691,54.0297897 274.691691,55.9299959 C274.691691,57.9984495 275.281577,59.5542433 276.458055,60.5986969 C277.634532,61.6418309 279.362009,62.1643876 281.643123,62.1643876 C283.118827,62.1643876 284.372418,61.9855835 285.403236,61.6273155 L285.403236,56.7943258 L280.634055,56.7943258 L280.634055,55.8917278 Z" id="Fill-41" fill="#7CB545" mask="url(#mask-4)"></path>
                        <path d="M281.643255,49.1874969 C280.084505,49.1874969 278.687891,49.4745072 277.490982,50.0406103 C276.309891,50.5994557 275.391118,51.4004454 274.758391,52.4211464 C274.125664,53.4451464 273.804686,54.6387134 273.804686,55.9662186 C273.804686,58.1032907 274.449277,59.7719093 275.719345,60.927868 C276.9993,62.0910845 278.882323,62.6802804 281.313709,62.6802804 C283.114345,62.6802804 284.760755,62.4282392 286.213391,61.9307546 L286.213391,56.2215588 L280.963732,56.2215588 L280.963732,56.4643629 L285.732914,56.4643629 L285.732914,61.8621361 L285.511459,61.939332 C284.451641,62.3074969 283.149936,62.4942186 281.643255,62.4942186 C279.291618,62.4942186 277.473845,61.939332 276.240027,60.8453938 C274.993686,59.7395794 274.362277,58.0854763 274.362277,55.9299299 C274.362277,53.9419711 275.024664,52.336033 276.329664,51.1569814 C277.624777,49.9865072 279.390482,49.3933526 281.577345,49.3933526 C283.002959,49.3933526 284.402209,49.6427546 285.739505,50.1369402 L285.881868,49.8631258 C284.621686,49.4151258 283.197391,49.1874969 281.643255,49.1874969 M281.313709,63.3400742 C278.712936,63.3400742 276.681618,62.6928165 275.276436,61.4161155 C273.862686,60.1301773 273.145595,58.2966103 273.145595,55.9662186 C273.145595,54.5140124 273.500186,53.2043216 274.198164,52.0740948 C274.898777,50.9425485 275.912459,50.0577649 277.208891,49.4441567 C278.494777,48.8358268 279.9863,48.5277031 281.643255,48.5277031 C283.423459,48.5277031 285.046141,48.8140536 286.467141,49.3788371 L286.806573,49.5134351 L286.051255,50.966301 L285.775095,50.8567753 C284.431209,50.3236619 283.019436,50.0531464 281.577345,50.0531464 C279.559209,50.0531464 277.9418,50.588899 276.771255,51.6472082 C275.610595,52.6956206 275.021368,54.1366103 275.021368,55.9299299 C275.021368,57.8888577 275.5783,59.3766928 276.677005,60.351868 C277.786255,61.3356206 279.457709,61.8344247 281.643255,61.8344247 C282.971982,61.8344247 284.124073,61.6846515 285.073823,61.3884041 L285.073823,57.1241567 L280.304641,57.1241567 L280.304641,55.5617649 L286.872482,55.5617649 L286.872482,62.3952495 L286.654982,62.4744247 C285.079095,63.0491052 283.281755,63.3400742 281.313709,63.3400742" id="Fill-42" fill="#77B446" mask="url(#mask-4)"></path>
                    </g>
                </g>
            </g>
        </g>
    </g>
</svg>