<svg height="288" viewBox="0 0 375 288" width="375" xmlns="http://www.w3.org/2000/svg" xmlns:xlink="http://www.w3.org/1999/xlink"><mask id="a" fill="#fff"><path d="m0 .39084507h374.127632v373.28873193h-374.127632z" fill="#fff" fill-rule="evenodd"/></mask><g fill="#77b446" fill-rule="evenodd" opacity=".1" transform="translate(0 -1)"><path d="m159.262632 373.679577c-.422369 0-.85-.03301-1.281579-.100352-43.592106-6.830545-83.5631583-29.145686-112.5526319-62.833626-29.2947369-34.044455-45.42894742-77.595951-45.42894742-122.632923 0-103.5092429 83.91710522-187.72183093 187.06578932-187.72183093 103.146053 0 187.063158 84.21258803 187.063158 187.72183093 0 85.775968-57.748684 160.552817-140.43421 181.841989-4.410527 1.139525-8.898685-1.530369-10.030264-5.955105s1.525-8.931338 5.934211-10.065581c75.392105-19.412852 128.047368-87.600792 128.047368-165.821303 0-94.3890845-76.522368-171.1808978-170.580263-171.1808978-94.0592104 0-170.5828946 76.7918133-170.5828946 171.1808978 0 41.069102 14.7105263 80.78213 41.4223684 111.821303 26.4381579 30.724912 62.8828952 51.075264 102.6184212 57.302377 4.497368.705105 7.573684 4.934419 6.872368 9.447623-.635526 4.080106-4.142105 6.994278-8.132894 6.995598" mask="url(#a)" transform="translate(0 .929577)"/><path d="m215.868553 373.716813c-7.210527 0-15.263158-1.472271-22.255264-6.318221-10.777631-7.465669-16.242105-20.640846-16.242105-39.159772v-214.929137c0-4.567341 3.689474-8.269806 8.24079-8.269806 4.551315 0 8.242105 3.702465 8.242105 8.269806v214.929137c0 12.759243 3.069737 21.353874 9.122368 25.547536 10.275 7.117077 27.225.977112 27.393421.916373 4.251316-1.622799 9.014474.528169 10.628948 4.799736 1.613158 4.271567-.528948 9.046215-4.784211 10.665053-.610526.232394-9.531579 3.549295-20.346052 3.549295"/><path d="m185.609211 265.440317c-1.971053 0-3.947369-.705106-5.523685-2.135123-3.376315-3.063381-3.639473-8.292254-.588158-11.680458l99.257895-110.201144c3.051316-3.389525 8.263158-3.65361 11.64079-.590229 3.376315 3.06206 3.638158 8.292253.586842 11.680457l-99.257895 110.201145c-1.626316 1.806338-3.867105 2.725352-6.115789 2.725352"/><path d="m183.233947 313.871039c-2.356579 0-4.696052-1.010124-6.326315-2.965669l-75.889474-91.066902c-2.9197369-3.504401-2.4565791-8.71875 1.035526-11.650088 3.493421-2.930017 8.69079-2.463908 11.607895 1.039173l75.889474 91.068222c2.919736 3.503081 2.456579 8.71875-1.034211 11.648767-1.543421 1.294014-3.418421 1.926497-5.282895 1.926497"/><path d="m107.412895 256.654357c-1.261842 0-2.528948-.056778-3.802632-.170334-11.1644735-.99956-21.2736841-6.302377-28.4618419-14.932659-2.9184211-3.503081-2.4539474-8.72007 1.0381578-11.648767 3.4921053-2.930018 8.6894737-2.463909 11.6078948 1.040493 4.3644737 5.239436 10.5013158 8.458627 17.2815793 9.066021 6.777631.602113 13.390789-1.473592 18.614473-5.854754 5.223685-4.382482 8.432895-10.543574 9.038158-17.349031.603948-6.805458-1.469737-13.440581-5.839473-18.682659-2.919737-3.503081-2.457895-8.72007 1.032894-11.650088 3.492106-2.930017 8.688158-2.466549 11.609211 1.036532 7.194737 8.631602 10.610526 19.556778 9.614473 30.764525-.996052 11.206426-6.281578 21.352552-14.882894 28.569982-7.621053 6.394806-17.036842 9.810739-26.85 9.810739"/><path d="m107.344737 222.803741c-2.356579 0-4.696053-1.008803-6.326316-2.964348l-13.9802631-16.772007c-2.9197368-3.504402-2.456579-8.720071 1.0342105-11.650088 3.4921053-2.931338 8.6881579-2.465229 11.6092105 1.037852l13.9802631 16.772007c2.921053 3.503081 2.456579 8.71875-1.03421 11.650088-1.542106 1.294014-3.418421 1.926496-5.282895 1.926496"/><path d="m133.214737 201.086356c-2.357895 0-4.697369-1.008803-6.327632-2.965669l-13.701316-16.444543c-2.918421-3.504401-2.455263-8.72007 1.036843-11.650088 3.490789-2.930017 8.689473-2.463908 11.60921 1.040493l13.701316 16.444543c2.919737 3.504401 2.455263 8.72007-1.036842 11.650088-1.542105 1.292693-3.417105 1.925176-5.281579 1.925176"/><path d="m81.4761842 244.518486c-2.3578947 0-4.6960526-1.008803-6.3276316-2.965669l-13.5789473-16.297975c-2.9197369-3.504402-2.4552632-8.71875 1.0368421-11.650088 3.4907894-2.928698 8.6881579-2.463909 11.6078947 1.040492l13.5802632 16.297976c2.9197368 3.504401 2.4552631 8.71875-1.0368421 11.650088-1.5421053 1.292694-3.4171053 1.925176-5.281579 1.925176"/><path d="m185.609211 76.5450264c-14.867106 0-26.963158 15.8912852-26.963158 35.4242956 0 19.53169 12.096052 35.422976 26.963158 35.422976 14.868421 0 26.964473-15.891286 26.964473-35.422976 0-19.5330104-12.096052-35.4242956-26.964473-35.4242956m0 87.3868836c-23.956579 0-43.444737-23.310739-43.444737-51.962588 0-28.6544893 19.488158-51.9639083 43.444737-51.9639083 23.956578 0 43.448684 23.309419 43.448684 51.9639083 0 28.651849-19.492106 51.962588-43.448684 51.962588"/><path d="m263.383421 252.757658c-.977632 0-1.956579-.179577-2.893421-.540052-1.692105-.65361-5.644737-2.181338-36.384211-34.427377-2.931578-3.076585-2.823684-7.956866.242106-10.900088 3.065789-2.944542 7.928947-2.834947 10.863158.241637 8.765789 9.196743 18.917105 19.476233 25.417105 25.65581 5.40921-17.512764 15.101316-60.680018 19.167105-88.950264.606579-4.213468 4.507895-7.128961 8.701316-6.529489 4.2.608714 7.113158 4.518485 6.506579 8.731954-2.251316 15.653609-6.953947 39.798855-11.978947 61.517165-9.361843 40.455106-12.471053 42.285211-15.477632 44.054578-1.292105.760563-2.726316 1.146126-4.163158 1.146126"/></g></svg>