<?xml version="1.0" encoding="UTF-8"?>
<svg width="375px" height="288px" viewBox="0 0 375 288" version="1.1" xmlns="http://www.w3.org/2000/svg" xmlns:xlink="http://www.w3.org/1999/xlink">
    <!-- Generator: Sketch 51.3 (57544) - http://www.bohemiancoding.com/sketch -->
    <title>watermark</title>
    <desc>Created with Sketch.</desc>
    <defs>
        <polygon id="path-1" points="0 0.39084507 374.127632 0.39084507 374.127632 373.679577 0 373.679577"></polygon>
    </defs>
    <g id="Landing" stroke="none" stroke-width="1" fill="none" fill-rule="evenodd" opacity="0.100000001">
        <g id="Landing-v2" transform="translate(-190.000000, -3725.000000)">
            <g id="watermark" transform="translate(190.000000, 3724.000000)">
                <g id="Group-3" transform="translate(0.000000, 0.929577)">
                    <mask id="mask-2" fill="white">
                        <use xlink:href="#path-1"></use>
                    </mask>
                    <g id="Clip-2"></g>
                    <path d="M159.262632,373.679577 C158.840263,373.679577 158.412632,373.646567 157.981053,373.579225 C114.388947,366.74868 74.4178947,344.433539 45.4284211,310.745599 C16.1336842,276.701144 -0.000526315789,233.149648 -0.000526315789,188.112676 C-0.000526315789,84.6034331 83.9165789,0.39084507 187.065263,0.39084507 C290.211316,0.39084507 374.128421,84.6034331 374.128421,188.112676 C374.128421,273.888644 316.379737,348.665493 233.694211,369.954665 C229.283684,371.09419 224.795526,368.424296 223.663947,363.99956 C222.532368,359.574824 225.188947,355.068222 229.598158,353.933979 C304.990263,334.521127 357.645526,266.333187 357.645526,188.112676 C357.645526,93.7235915 281.123158,16.9317782 187.065263,16.9317782 C93.0060526,16.9317782 16.4823684,93.7235915 16.4823684,188.112676 C16.4823684,229.181778 31.1928947,268.894806 57.9047368,299.933979 C84.3428947,330.658891 120.787632,351.009243 160.523158,357.236356 C165.020526,357.941461 168.096842,362.170775 167.395526,366.683979 C166.76,370.764085 163.253421,373.678257 159.262632,373.679577" id="Fill-1" fill="#77B446" mask="url(#mask-2)"></path>
                </g>
                <path d="M215.868553,373.716813 C208.658026,373.716813 200.605395,372.244542 193.613289,367.398592 C182.835658,359.932923 177.371184,346.757746 177.371184,328.23882 L177.371184,113.309683 C177.371184,108.742342 181.060658,105.039877 185.611974,105.039877 C190.163289,105.039877 193.854079,108.742342 193.854079,113.309683 L193.854079,328.23882 C193.854079,340.998063 196.923816,349.592694 202.976447,353.786356 C213.251447,360.903433 230.201447,354.763468 230.369868,354.702729 C234.621184,353.07993 239.384342,355.230898 240.998816,359.502465 C242.611974,363.774032 240.469868,368.54868 236.214605,370.167518 C235.604079,370.399912 226.683026,373.716813 215.868553,373.716813" id="Fill-4" fill="#77B446"></path>
                <path d="M185.609211,265.440317 C183.638158,265.440317 181.661842,264.735211 180.085526,263.305194 C176.709211,260.241813 176.446053,255.01294 179.497368,251.624736 L278.755263,141.423592 C281.806579,138.034067 287.018421,137.769982 290.396053,140.833363 C293.772368,143.895423 294.034211,149.125616 290.982895,152.51382 L191.725,262.714965 C190.098684,264.521303 187.857895,265.440317 185.609211,265.440317" id="Fill-6" fill="#77B446"></path>
                <path d="M183.233947,313.871039 C180.877368,313.871039 178.537895,312.860915 176.907632,310.90537 L101.018158,219.838468 C98.0984211,216.334067 98.5615789,211.119718 102.053684,208.18838 C105.547105,205.258363 110.744474,205.724472 113.661579,209.227553 L189.551053,300.295775 C192.470789,303.798856 192.007632,309.014525 188.516842,311.944542 C186.973421,313.238556 185.098421,313.871039 183.233947,313.871039" id="Fill-8" fill="#77B446"></path>
                <path d="M107.412895,256.654357 C106.151053,256.654357 104.883947,256.597579 103.610263,256.484023 C92.4457895,255.484463 82.3365789,250.181646 75.1484211,241.551364 C72.23,238.048283 72.6944737,232.831294 76.1865789,229.902597 C79.6786842,226.972579 84.8760526,227.438688 87.7944737,230.94309 C92.1589474,236.182526 98.2957895,239.401717 105.076053,240.009111 C111.853684,240.611224 118.466842,238.535519 123.690526,234.154357 C128.914211,229.771875 132.123421,223.610783 132.728684,216.805326 C133.332632,209.999868 131.258947,203.364745 126.889211,198.122667 C123.969474,194.619586 124.431316,189.402597 127.922105,186.472579 C131.414211,183.542562 136.610263,184.00603 139.531316,187.509111 C146.726053,196.140713 150.141842,207.065889 149.145789,218.273636 C148.149737,229.480062 142.864211,239.626188 134.262895,246.843618 C126.641842,253.238424 117.226053,256.654357 107.412895,256.654357" id="Fill-10" fill="#77B446"></path>
                <path d="M107.344737,222.803741 C104.988158,222.803741 102.648684,221.794938 101.018421,219.839393 L87.0381579,203.067386 C84.1184211,199.562984 84.5815789,194.347315 88.0723684,191.417298 C91.5644737,188.48596 96.7605263,188.952069 99.6815789,192.45515 L113.661842,209.227157 C116.582895,212.730238 116.118421,217.945907 112.627632,220.877245 C111.085526,222.171259 109.209211,222.803741 107.344737,222.803741" id="Fill-12" fill="#77B446"></path>
                <path d="M133.214737,201.086356 C130.856842,201.086356 128.517368,200.077553 126.887105,198.120687 L113.185789,181.676144 C110.267368,178.171743 110.730526,172.956074 114.222632,170.026056 C117.713421,167.096039 122.912105,167.562148 125.831842,171.066549 L139.533158,187.511092 C142.452895,191.015493 141.988421,196.231162 138.496316,199.16118 C136.954211,200.453873 135.079211,201.086356 133.214737,201.086356" id="Fill-14" fill="#77B446"></path>
                <path d="M81.4761842,244.518486 C79.1182895,244.518486 76.7801316,243.509683 75.1485526,241.552817 L61.5696053,225.254842 C58.6498684,221.75044 59.1143421,216.536092 62.6064474,213.604754 C66.0972368,210.676056 71.2946053,211.140845 74.2143421,214.645246 L87.7946053,230.943222 C90.7143421,234.447623 90.2498684,239.661972 86.7577632,242.59331 C85.2156579,243.886004 83.3406579,244.518486 81.4761842,244.518486" id="Fill-16" fill="#77B446"></path>
                <path d="M185.609211,76.5450264 C170.742105,76.5450264 158.646053,92.4363116 158.646053,111.969322 C158.646053,131.501012 170.742105,147.392298 185.609211,147.392298 C200.477632,147.392298 212.573684,131.501012 212.573684,111.969322 C212.573684,92.4363116 200.477632,76.5450264 185.609211,76.5450264 M185.609211,163.93191 C161.652632,163.93191 142.164474,140.621171 142.164474,111.969322 C142.164474,83.3148327 161.652632,60.0054137 185.609211,60.0054137 C209.565789,60.0054137 229.057895,83.3148327 229.057895,111.969322 C229.057895,140.621171 209.565789,163.93191 185.609211,163.93191" id="Fill-18" fill="#77B446"></path>
                <path d="M263.383421,252.757658 C262.405789,252.757658 261.426842,252.578081 260.49,252.217606 C258.797895,251.563996 254.845263,250.036268 224.105789,217.790229 C221.174211,214.713644 221.282105,209.833363 224.347895,206.890141 C227.413684,203.945599 232.276842,204.055194 235.211053,207.131778 C243.976842,216.328521 254.128158,226.608011 260.628158,232.787588 C266.037368,215.274824 275.729474,172.10757 279.795263,143.837324 C280.401842,139.623856 284.303158,136.708363 288.496579,137.307835 C292.696579,137.916549 295.609737,141.82632 295.003158,146.039789 C292.751842,161.693398 288.049211,185.838644 283.024211,207.556954 C273.662368,248.01206 270.553158,249.842165 267.546579,251.611532 C266.254474,252.372095 264.820263,252.757658 263.383421,252.757658" id="Fill-20" fill="#77B446"></path>
            </g>
        </g>
    </g>
</svg>