<svg version="1" xmlns="http://www.w3.org/2000/svg" width="420" height="420" viewBox="0 0 315.000000 315.000000"><path d="M142.2 2.1c-24.7 3-44.5 9.5-64.2 21-14.1 8.3-20.6 13.5-33.1 26.2C26.1 68.4 12.8 91.6 6 117.5c-2.8 10.7-3.3 13.2-5 26-.9 6.1-.6 31.7.3 33.2.3.4.8 3.4 1.1 6.6.9 7.2 5.6 24.1 9.6 34.2 10.3 26 28.9 49.6 53 67.5 19.7 14.6 58.6 30.2 64.2 25.7 2.7-2.2 3.6-4.9 2.6-7.8-1-3-3.1-4-12.7-6.4-21.6-5.5-46.4-19.9-63.9-37.4-20.8-20.7-36.1-51.5-39.8-80.1-.3-2.5-.7-5.6-1-7-.5-3.2-.5-23.4.1-28.2 5.2-45.4 29.8-84.4 68-107.8 9.7-6 28.7-14.3 35-15.4.6-.1 1.6-.5 2.3-.9.6-.5 1.2-.6 1.2-.3s1 .2 2.3-.3c1.3-.5 4.1-1.2 6.3-1.6 2.1-.4 5-.9 6.4-1.1 6.2-1.3 35.9-1.2 43 .1 17.1 3 28.3 6.6 42.4 13.7C264 51.4 290.9 88.6 299.6 138c.3 1.9.7 10 .9 18 .3 12.9-.6 23.1-2.9 33-.4 1.4-.9 3.8-1.2 5.4-.7 4.2-7.2 21.1-10.6 28.1-3.2 6.3-12 20.2-15.9 25.1-7.1 8.9-23.7 23.8-34.1 30.7-32.4 21.5-54.1 26.2-64.8 14-7.6-8.6-8.9-17.9-9-64.9l-.1-28.1 8.7-8.7 8.7-8.7 9.1 9.4c10.4 10.8 12.9 12.7 16.9 12.7 5 0 9.2-6 16.9-24.6 8.1-19.3 15.9-45.2 17.4-57.6.6-5.1.4-5.9-1.8-8.1-1.8-1.8-3.2-2.3-5.1-2-1.8.4-13.7 11.6-36.7 34.5-18.7 18.7-34 33.7-34.1 33.4v-32.4c.1-14.4.4-18.9 1.4-18.9 2.8 0 9.5-4.1 13.9-8.6 7.7-7.8 11.3-16.8 11.7-29.3.7-24.2-16-43-36.7-41.1-7.4.6-13.5 3.7-19.3 9.6-9.8 10.2-13.9 25.9-10.5 40.5 3 12.8 9.4 21.4 20.3 27.2l5.8 3.1v43.6c0 24.1-.3 43.7-.8 43.7-.4 0-7.1-6.3-14.8-14.1l-14.1-14.1 2.3-5.1c1.6-3.9 2.2-7.2 2.3-12.8 0-10.6-3.5-17.6-14.3-28.3-6.5-6.5-8.5-7.9-11.1-7.9-3.6 0-5.6 1.7-6.5 5.6-.6 2.4.1 3.6 7.3 11 4.4 4.5 8.7 9.8 9.7 11.6 1.9 3.7 2.2 12.8.6 14.4-.6.6-5.3-3.5-12.3-10.5-11.5-11.6-15.3-14.6-17.5-14.3-.7.2-1.7.3-2.2.4-2 .2-4.1 3.4-4.1 6.2 0 2.5 2.2 5.2 12.9 16 12.5 12.6 12.8 13.1 10.4 14-7.2 2.7-13 .3-23.8-10.1-9-8.6-11.8-9.7-15.5-6-4 4-2.7 6.9 6.8 16.2 8.8 8.6 13.8 11.9 20.2 13.3 6 1.4 13.5.7 19.6-1.7l5.8-2.4 19.5 19.7 19.6 19.7.1 8.8c.1 22.1 2.3 37.6 6.5 46.1 9.4 18.5 28 24.2 51.9 15.9 7.4-2.6 20.3-8.7 20.8-9.8.2-.5.8-.8 1.3-.8 1.2 0 9.9-5.3 19.9-12.4 10.3-7.2 28.4-25.3 36.2-36.2 9.5-13.3 19-32.9 23-47.4 2.3-8.6 2.8-10.9 3.8-16.9 2.9-17.1 3-38 .4-51.6-4.9-25.8-12.6-45-26.1-64.5-8.2-11.7-10.8-14.6-29.5-32.3-1-.9-2.2-1.7-2.7-1.7s-1.4-.6-2-1.4c-2.2-2.6-14.8-10.5-24.7-15.4-10.5-5.3-20.5-9.2-30.1-11.6-6.6-1.7-9.4-2.2-21.8-4.2-6.1-.9-26.2-1.1-33.3-.3zm20.4 62.2c14.5 7.6 17.5 33.1 5.3 45.6-2.2 2.3-4.5 4.1-5.1 3.9-.7-.3-1-4.7-.9-12.4.2-10.3-.1-12.4-1.6-14.2-3.1-3.6-9.2-3-11 1.1-.5 1.2-.9 7.5-.8 13.9 0 7.9-.3 11.8-1.1 11.8-2.3 0-8.5-7.6-10.5-12.9-8.1-21.7 8.6-45.7 25.7-36.8zm58 79.9c-4.8 15.9-14.2 39.8-16.6 42.2-1 1-3.7-1.4-12.8-11.6l-2.3-2.5 15.8-16c8.7-8.9 16.1-16.1 16.5-16.2.4 0 .1 1.8-.6 4.1z"/></svg>