<svg height="1024" viewBox="0 0 768 768" width="1024" xmlns="http://www.w3.org/2000/svg"><path d="m112 388v367l74.3-.2 74.2-.3.3-140.7.2-140.7 3.3-.5c4.8-.8 90.8-9.6 93.7-9.6 2.8 0-6.4-21.3 94.8 218.5l30.8 73 85.7.3c47.1.1 85.7 0 85.7-.1 0-.2-2.4-5.8-5.4-12.3-2.9-6.5-29.5-65.9-59.1-131.9s-64-142.9-76.6-170.9l-22.8-50.8 48.9-112.2c26.8-61.6 62.6-143.8 79.5-182.6s30.9-71.1 31.2-71.8c.4-1-16.6-1.2-84.3-1l-84.9.3-60.4 155.5c-33.3 85.5-60.5 155.6-60.6 155.7-.1.3-94.9 10.3-97.5 10.3-2 0-2-.3-2-161v-161h-149z"/></svg>